<svg width="31" height="27" viewBox="0 0 31 27" fill="none" xmlns="http://www.w3.org/2000/svg">
<path d="M21.3333 5.375L21.2865 5.40852C21.0573 5.38617 20.7812 5.375 20.5 5.375H13.8333C12.974 5.375 12.1406 5.48063 11.3438 5.67969C11.3385 5.57812 11.3333 5.47758 11.3333 5.375C11.3333 2.68258 13.526 0.5 16.3333 0.5C19.0938 0.5 21.3333 2.68258 21.3333 5.375ZM20.5 7C20.6823 7 20.8177 7.00508 21.0417 7.01523C21.2656 7.03047 21.4844 7.05078 21.6979 7.08125C22.6146 6.04023 23.9792 5.375 25.5 5.375H27.1667L26.1875 9.18867C27.0156 9.94023 27.6823 10.8543 28.1406 11.875H28.8333C29.7552 11.875 30.5 12.6012 30.5 13.5V18.375C30.5 19.2738 29.7552 20 28.8333 20H27.1667C26.6927 20.6145 26.1302 21.1629 25.5 21.625V24.875C25.5 25.7738 24.7552 26.5 23.8333 26.5H22.1667C21.2448 26.5 20.5 25.7738 20.5 24.875V23.25H13.8333V24.875C13.8333 25.7738 13.0885 26.5 12.1667 26.5H10.5C9.57812 26.5 8.83333 25.7738 8.83333 24.875V21.625C7.01562 20.2945 5.77604 18.2633 5.54115 15.9375H4.04167C2.08542 15.9375 0.5 14.3938 0.5 12.4844C0.5 10.575 2.08542 9.03125 4.04167 9.03125H4.25C4.9401 9.03125 5.5 9.57461 5.5 10.25C5.5 10.9254 4.9401 11.4688 4.25 11.4688H4.04167C3.46615 11.4688 3 11.8801 3 12.4844C3 13.043 3.46615 13.5 4.04167 13.5H5.66667C6.29688 10.4633 8.67188 8.04102 11.724 7.26406C12.3958 7.09141 13.0573 7 13.8333 7H20.5ZM22.5833 12.6875C21.8906 12.6875 21.3333 13.2309 21.3333 13.9062C21.3333 14.5816 21.8906 15.125 22.5833 15.125C23.276 15.125 23.8333 14.5816 23.8333 13.9062C23.8333 13.2309 23.276 12.6875 22.5833 12.6875Z" fill="#F26E29"/>
</svg>
