<svg width="33" height="33" viewBox="0 0 33 33" fill="none" xmlns="http://www.w3.org/2000/svg">
<path d="M20.4324 6.25005H12.3393L9.3423 1.7533C8.89338 1.08056 9.37391 0.180201 10.1832 0.180201H22.5885C23.3978 0.180201 23.8783 1.08056 23.4294 1.7533L20.4324 6.25005ZM12.3393 8.27334H20.4324C20.6727 8.4314 20.9446 8.60844 21.1975 8.80445C24.8394 11.0996 32.5721 16.044 32.5721 26.4829C32.5721 29.834 29.8533 32.5527 26.5023 32.5527H6.26944C2.91711 32.5527 0.199585 29.834 0.199585 26.4829C0.199585 16.044 7.93232 11.0996 11.5173 8.80445C11.8271 8.60844 12.099 8.4314 12.3393 8.27334ZM17.6567 14.3432C17.6567 13.6414 17.0877 13.0723 16.329 13.0723C15.684 13.0723 15.115 13.6414 15.115 14.3432V14.7226C14.7609 14.7984 14.3689 14.9059 14.1097 15.045C13.1676 15.475 12.3456 16.2716 12.1433 17.4287C12.0295 18.0736 12.0927 18.6996 12.3583 19.2623C12.6238 19.8187 13.0348 20.2107 13.4521 20.4952C14.1855 20.9947 15.1529 21.2856 15.8927 21.5069L16.0318 21.5448C16.917 21.8167 17.5113 22.0127 17.8843 22.2846C18.0424 22.3984 18.0993 22.4869 18.1183 22.5438C18.1436 22.5944 18.1815 22.7082 18.1373 22.9611C18.0993 23.1824 17.9792 23.3721 17.6314 23.5175C17.2458 23.6819 16.6198 23.7641 15.8105 23.6376C15.4311 23.5744 14.7546 23.3468 14.1539 23.1445C14.0148 23.0939 13.8757 23.0496 13.7493 23.0054C13.0854 22.7841 12.3709 23.1445 12.1496 23.8084C11.9283 24.4723 12.2887 25.1867 12.9526 25.3511C13.0285 25.4333 13.1233 25.4649 13.2308 25.5029C13.6734 25.6736 14.5143 25.9391 15.115 26.0782V26.4829C15.115 27.1847 15.684 27.7538 16.329 27.7538C17.0877 27.7538 17.6567 27.1847 17.6567 26.4829V26.1351C17.9918 26.0719 18.3206 25.9202 18.6241 25.8443C19.6231 25.4207 20.4198 24.5987 20.6284 23.3974C20.7422 22.7398 20.6917 22.1075 20.4387 21.5322C20.1922 20.9631 19.7938 20.5458 19.3702 20.2423C18.6051 19.6796 17.5809 19.3761 16.8158 19.1422L16.7083 19.1295C15.8674 18.8576 15.2604 18.668 14.8747 18.4024C14.7103 18.2886 14.6597 18.2127 14.6471 18.1811C14.6344 18.1558 14.5965 18.0799 14.6344 17.865C14.6597 17.7385 14.7546 17.5299 15.1529 17.3528C15.507 17.1695 16.1898 17.0683 16.9612 17.1315C17.2394 17.2327 18.093 17.3971 18.3396 17.4603C19.0098 17.6437 19.7053 17.239 19.8823 16.5625C20.0657 15.8923 19.661 15.1968 18.9845 15.0197C18.7063 14.9438 18.074 14.8174 17.6567 14.7415V14.3432Z" fill="#F26E29"/>
</svg>
