<svg width="23" height="30" viewBox="0 0 23 30" fill="none" xmlns="http://www.w3.org/2000/svg">
<path d="M19.75 0C21.2682 0 22.5 1.25918 22.5 2.8125V27.1875C22.5 28.7402 21.2682 30 19.75 30H14.25V25.3125C14.25 23.7598 13.0182 22.5 11.5 22.5C9.98177 22.5 8.75 23.7598 8.75 25.3125V30H3.25C1.7312 30 0.5 28.7402 0.5 27.1875V2.8125C0.5 1.25918 1.7312 0 3.25 0H19.75ZM4.16667 15.9375C4.16667 16.4531 4.57688 16.875 5.08333 16.875H6.91667C7.42083 16.875 7.83333 16.4531 7.83333 15.9375V14.0625C7.83333 13.5469 7.42083 13.125 6.91667 13.125H5.08333C4.57688 13.125 4.16667 13.5469 4.16667 14.0625V15.9375ZM10.5833 13.125C10.0792 13.125 9.66667 13.5469 9.66667 14.0625V15.9375C9.66667 16.4531 10.0792 16.875 10.5833 16.875H12.4167C12.9208 16.875 13.3333 16.4531 13.3333 15.9375V14.0625C13.3333 13.5469 12.9208 13.125 12.4167 13.125H10.5833ZM15.1667 15.9375C15.1667 16.4531 15.5792 16.875 16.0833 16.875H17.9167C18.4208 16.875 18.8333 16.4531 18.8333 15.9375V14.0625C18.8333 13.5469 18.4208 13.125 17.9167 13.125H16.0833C15.5792 13.125 15.1667 13.5469 15.1667 14.0625V15.9375ZM5.08333 5.625C4.57688 5.625 4.16667 6.04688 4.16667 6.5625V8.4375C4.16667 8.95312 4.57688 9.375 5.08333 9.375H6.91667C7.42083 9.375 7.83333 8.95312 7.83333 8.4375V6.5625C7.83333 6.04688 7.42083 5.625 6.91667 5.625H5.08333ZM9.66667 8.4375C9.66667 8.95312 10.0792 9.375 10.5833 9.375H12.4167C12.9208 9.375 13.3333 8.95312 13.3333 8.4375V6.5625C13.3333 6.04688 12.9208 5.625 12.4167 5.625H10.5833C10.0792 5.625 9.66667 6.04688 9.66667 6.5625V8.4375ZM16.0833 5.625C15.5792 5.625 15.1667 6.04688 15.1667 6.5625V8.4375C15.1667 8.95312 15.5792 9.375 16.0833 9.375H17.9167C18.4208 9.375 18.8333 8.95312 18.8333 8.4375V6.5625C18.8333 6.04688 18.4208 5.625 17.9167 5.625H16.0833Z" fill="#F26E29"/>
</svg>
