<svg width="30" height="20" viewBox="0 0 30 20" fill="none" xmlns="http://www.w3.org/2000/svg">
<path d="M8.625 2.5C8.625 3.87946 7.44844 5 6 5C4.55016 5 3.375 3.87946 3.375 2.5C3.375 1.1192 4.55016 0 6 0C7.44844 0 8.625 1.1192 8.625 2.5ZM9.76875 7.33482C8.37656 8.51339 7.5 10.2321 7.5 12.1429C7.5 13.6741 8.02031 15.0804 9 16.183V17.1429C9 17.933 8.32969 18.5714 7.5 18.5714H4.5C3.67172 18.5714 3 17.933 3 17.1429V15.9464C1.22625 15.1429 0 13.4241 0 11.4286C0 8.66518 2.35031 6.42857 5.25 6.42857H6.75C7.83281 6.42857 8.91562 6.76339 9.76875 7.33482ZM3 9.54018C2.53312 10.0402 2.25 10.7054 2.25 11.4286C2.25 12.1518 2.53312 12.817 3 13.317V9.54018ZM21 17.1429V16.183C21.9375 15.0804 22.5 13.6741 22.5 12.1429C22.5 10.2321 21.6234 8.51339 20.2313 7.33482C21.0844 6.76339 22.125 6.42857 23.25 6.42857H24.75C27.6516 6.42857 30 8.66518 30 11.4286C30 13.4241 28.7719 15.1429 27 15.9464V17.1429C27 17.933 26.3297 18.5714 25.5 18.5714H22.5C21.6703 18.5714 21 17.933 21 17.1429ZM27 13.317C27.4266 12.817 27.75 12.1518 27.75 11.4286C27.75 10.7054 27.4266 10.0402 27 9.54018V13.317ZM26.625 2.5C26.625 3.87946 25.4484 5 24 5C22.5516 5 21.375 3.87946 21.375 2.5C21.375 1.1192 22.5516 0 24 0C25.4484 0 26.625 1.1192 26.625 2.5ZM12 2.85714C12 1.27902 13.3453 0 15 0C16.6547 0 18 1.27902 18 2.85714C18 4.43304 16.6547 5.71429 15 5.71429C13.3453 5.71429 12 4.43304 12 2.85714ZM21 12.1429C21 14.1384 19.7719 15.8571 18 16.6607V18.5714C18 19.3616 17.3297 20 16.5 20H13.5C12.6703 20 12 19.3616 12 18.5714V16.6607C10.2281 15.8571 9 14.1384 9 12.1429C9 9.37946 11.3484 7.14286 14.25 7.14286H15.75C18.6516 7.14286 21 9.37946 21 12.1429ZM12 14.0312V10.2545C11.5312 10.7545 11.25 11.4196 11.25 12.1429C11.25 12.8661 11.5312 13.5312 12 14.0312ZM18 10.2545V14.0312C18.4266 13.5268 18.75 12.8661 18.75 12.1429C18.75 11.4196 18.4266 10.7545 18 10.2545Z" fill="#F26E29"/>
</svg>
