<svg width="31" height="31" viewBox="0 0 31 31" fill="none" xmlns="http://www.w3.org/2000/svg">
<path d="M28.625 11.0234C29.7148 11.5391 30.5 12.9277 30.5 14.5625C30.5 16.1973 29.7148 17.5859 28.625 18.1016V26.75C28.625 27.5059 28.168 28.1914 27.4648 28.4844C26.7676 28.7715 25.959 28.6133 25.4258 28.0742L22.8652 25.4668C20.0527 22.6543 16.2383 21.125 12.2598 21.125H11.75V28.625C11.75 29.6621 10.9121 30.5 9.875 30.5H6.125C5.08965 30.5 4.25 29.6621 4.25 28.625V21.125C2.17871 21.125 0.5 19.4434 0.5 17.375V11.75C0.5 9.68164 2.17871 8 4.25 8H12.2598C16.2383 8 20.0527 6.41796 22.8652 3.60663L25.4258 1.04919C25.959 0.512972 26.7676 0.352571 27.4648 0.642786C28.168 0.933001 28.625 1.61679 28.625 2.37499V11.0234ZM12.2598 11.75H11.75V17.375H12.2598C16.9356 17.375 21.4297 19.1211 24.875 22.2559V6.86914C21.4297 10.0039 16.9356 11.75 12.2598 11.75Z" fill="white"/>
</svg>
