<svg width="33" height="34" viewBox="0 0 33 34" fill="none" xmlns="http://www.w3.org/2000/svg">
<path fill-rule="evenodd" clip-rule="evenodd" d="M3.17927 0.64714C2.40813 0.833122 1.86955 1.14856 1.15097 1.83511C-0.0486249 2.98141 -0.03583 2.84279 0.0184611 14.2452C0.0665277 24.2998 0.0717146 24.4341 0.440168 25.117C0.645575 25.4973 1.0346 26.0182 1.30468 26.2746C2.26532 27.1858 2.76033 27.2776 6.71822 27.2776H10.3547V30.1814C10.3547 33.1514 10.4275 33.5 11.0479 33.5C11.2009 33.5 12.7999 32.4024 14.601 31.061C16.4023 29.7195 18.2971 28.3195 18.8118 27.9498L19.7477 27.2776H24.852C29.6512 27.2776 30.0003 27.2563 30.6915 26.9219C31.6321 26.4666 32.5846 25.4127 32.8194 24.5675C32.9393 24.1359 33.0019 20.4025 33 13.7956C32.9968 2.34448 33.0664 2.94477 31.5865 1.58655C31.0194 1.06612 30.5634 0.819467 29.9093 0.679117C28.8948 0.461677 4.07145 0.431775 3.17927 0.64714ZM17.4525 5.98996C17.7082 6.19703 17.8808 6.57227 17.9471 7.0654C18.0422 7.77338 18.099 7.84148 18.8148 8.10558C19.925 8.5154 20.383 8.9826 20.383 9.70527C20.383 10.1661 20.2578 10.4134 19.851 10.7555C19.2766 11.2386 18.7819 11.3093 18.0168 11.0172C17.2268 10.7157 15.4017 10.7505 15.0789 11.0732C14.6003 11.5514 14.9485 11.8411 16.6964 12.4186C19.8945 13.4752 20.7762 14.1339 21.0997 15.7092C21.4648 17.4866 20.6342 19.0054 18.8704 19.7851C18.0203 20.161 17.9624 20.2258 17.9624 20.8016C17.9624 21.224 17.8296 21.5493 17.5379 21.8407C16.6181 22.7604 15.023 22.1161 15.023 20.8249C15.023 20.0991 14.8569 19.955 13.6004 19.5911C11.9668 19.1181 11.4016 17.8845 12.35 16.8619C12.8815 16.2891 13.3936 16.2621 14.6537 16.7409C16.2328 17.3409 18.238 17.1542 18.1024 16.42C18.0654 16.2191 17.4672 15.9324 16.1711 15.494C12.873 14.3787 11.9193 13.4837 11.9136 11.4985C11.9091 9.86255 12.632 8.78728 14.2038 8.0921C14.9426 7.76542 15.023 7.67382 15.023 7.15822C15.023 5.92825 16.4993 5.21838 17.4525 5.98996Z" fill="white"/>
</svg>
