<svg width="37" height="24" viewBox="0 0 37 24" fill="none" xmlns="http://www.w3.org/2000/svg">
<path d="M32.5 24C34.7062 24 36.5 22.2094 36.5 20V4C36.5 1.79375 34.7062 0 32.5 0H4.5C2.29063 0 0.5 1.79375 0.5 4V20C0.5 22.2094 2.29063 24 4.5 24H32.5ZM8.5 4C8.5 6.20625 6.70937 8 4.5 8V4H8.5ZM4.5 16C6.70937 16 8.5 17.7937 8.5 20H4.5V16ZM32.5 4V8C30.2938 8 28.5 6.20625 28.5 4H32.5ZM32.5 20H28.5C28.5 17.7937 30.2938 16 32.5 16V20ZM18.5 6C21.8125 6 24.5 8.6875 24.5 12C24.5 15.3687 21.8125 18 18.5 18C15.1313 18 12.5 15.3687 12.5 12C12.5 8.6875 15.1313 6 18.5 6Z" fill="white"/>
</svg>
