<svg width="27" height="35" viewBox="0 0 27 35" fill="none" xmlns="http://www.w3.org/2000/svg">
<path d="M17.8333 0V8.75H26.5L17.8333 0ZM20 17.5H7V21.875H20V17.5ZM15.6667 8.75V0H3.75C1.95505 0 0.5 1.46904 0.5 3.28125V31.7188C0.5 33.5303 1.95505 35 3.75 35H23.25C25.0449 35 26.5 33.531 26.5 31.7188V10.9375H17.8943C16.6349 10.9375 15.6667 9.95996 15.6667 8.75ZM4.83333 4.92188C4.83333 4.62314 5.07911 4.375 5.375 4.375H10.7917C11.0896 4.375 11.3333 4.62314 11.3333 4.92188V6.01562C11.3333 6.31504 11.0896 6.5625 10.7917 6.5625H5.375C5.07911 6.5625 4.83333 6.31504 4.83333 6.01562V4.92188ZM4.83333 9.29688C4.83333 8.99609 5.07911 8.75 5.375 8.75H10.7917C11.0896 8.75 11.3333 8.99609 11.3333 9.29688V10.3906C11.3333 10.6914 11.0896 10.9375 10.7917 10.9375H5.375C5.07911 10.9375 4.83333 10.6914 4.83333 10.3906V9.29688ZM22.1667 30.0781C22.1667 30.3772 21.9212 30.625 21.625 30.625H16.2083C15.9104 30.625 15.6667 30.3789 15.6667 30.0781V28.9844C15.6667 28.6853 15.9121 28.4375 16.2083 28.4375H21.625C21.9212 28.4375 22.1667 28.6853 22.1667 28.9844V30.0781ZM22.1667 16.4062V22.9688C22.1667 23.5754 21.6842 24.0625 21.0833 24.0625H5.91667C5.31609 24.0625 4.83333 23.5771 4.83333 22.9688V16.4062C4.83333 15.7979 5.31609 15.3125 5.91667 15.3125H21.0833C21.6859 15.3125 22.1667 15.7979 22.1667 16.4062Z" fill="white"/>
</svg>
