<svg width="27" height="35" viewBox="0 0 27 35" fill="none" xmlns="http://www.w3.org/2000/svg">
<path d="M26.5 9H17.8333V0.5L26.5 9ZM17.8333 11.125H26.5V31.3125C26.5 33.0729 25.0449 34.5 23.25 34.5H3.75C1.95505 34.5 0.5 33.0723 0.5 31.3125V3.6875C0.5 1.92707 1.95505 0.5 3.75 0.5H15.6667L15.6669 9C15.6667 10.1754 16.6349 11.125 17.8333 11.125ZM4.83333 6.34375C4.83333 6.63461 5.07911 6.875 5.375 6.875H10.7917C11.0896 6.875 11.3333 6.63461 11.3333 6.34375V5.28125C11.3333 4.99105 11.0896 4.75 10.7917 4.75H5.375C5.07911 4.75 4.83333 4.99105 4.83333 5.28125V6.34375ZM5.375 11.125H10.7917C11.0896 11.125 11.3333 10.8859 11.3333 10.5938V9.53125C11.3333 9.23906 11.0896 9 10.7917 9H5.375C5.07911 9 4.83333 9.23906 4.83333 9.53125V10.5938C4.83333 10.8859 5.07911 11.125 5.375 11.125ZM13.8724 21.5375L13.4391 21.4313C11.8953 20.9664 11.9292 20.6941 11.9833 20.4551C12.0764 19.9363 13.1066 19.8097 14.0329 19.9487C14.4116 20.0048 14.8271 20.1355 15.2239 20.2704C15.9273 20.5091 16.7019 20.1417 16.947 19.4509C17.1925 18.7577 16.819 18.0006 16.1122 17.7596C15.6234 17.5946 15.2245 17.4888 14.8555 17.4094V16.9688C14.8555 16.2363 14.2493 15.6406 13.5014 15.6406C12.7534 15.6406 12.1472 16.2362 12.1472 16.9688V17.3667C10.6292 17.6859 9.55938 18.6156 9.31563 20.0035C8.81418 22.8484 11.5629 23.6393 12.7363 23.9773L13.1298 24.0894C15.1123 24.6455 15.0798 24.8324 15.0202 25.1705C14.9271 25.6892 13.8969 25.8179 12.9679 25.6768C12.4982 25.6083 11.8975 25.3966 11.366 25.2099L11.0634 25.102C10.3585 24.8633 9.58531 25.2223 9.33546 25.9135C9.08684 26.6048 9.45605 27.3638 10.1615 27.6088L10.4503 27.7084C10.9756 27.8936 11.5594 28.0796 12.1471 28.2073V28.6562C12.1471 29.3887 12.7533 29.9844 13.5013 29.9844C14.2493 29.9844 14.8555 29.3888 14.8555 28.6562V28.2409C16.3694 27.9227 17.4426 27.0104 17.6877 25.6225C18.1922 22.7461 15.3823 21.9559 13.8724 21.5375Z" fill="white"/>
</svg>
