<svg width="23" height="30" viewBox="0 0 23 30" fill="none" xmlns="http://www.w3.org/2000/svg">
<path d="M15.1875 0V7.375H22.5625L15.1875 0ZM13.3438 7.375V0H3.20312C1.67569 0 0.4375 1.23819 0.4375 2.76562V26.7344C0.4375 28.2612 1.67569 29.5 3.20312 29.5H19.7969C21.3243 29.5 22.5625 28.2618 22.5625 26.7344V9.21875H15.2394C14.1677 9.21875 13.3438 8.39482 13.3438 7.375ZM4.125 4.14844C4.125 3.89665 4.33415 3.6875 4.58594 3.6875H9.19531C9.44883 3.6875 9.65625 3.89665 9.65625 4.14844V5.07031C9.65625 5.32268 9.44883 5.53125 9.19531 5.53125H4.58594C4.33415 5.53125 4.125 5.32268 4.125 5.07031V4.14844ZM4.125 7.83594C4.125 7.58242 4.33415 7.375 4.58594 7.375H9.19531C9.44883 7.375 9.65625 7.58242 9.65625 7.83594V8.75781C9.65625 9.01133 9.44883 9.21875 9.19531 9.21875H4.58594C4.33415 9.21875 4.125 9.01133 4.125 8.75781V7.83594ZM17.9531 22.125C18.4645 22.125 18.875 22.5355 18.875 23.0469C18.875 23.5582 18.4659 23.9688 17.9531 23.9688H15.2307C14.2869 23.9688 13.4302 23.443 13.005 22.5929C12.8393 22.2544 12.544 22.2183 12.4219 22.2183C12.2997 22.2183 12.0042 22.2544 11.8457 22.5712L11.3992 23.4574C11.2465 23.7729 10.872 23.9688 10.5781 23.9688H10.5147C10.1402 23.9399 9.82334 23.6951 9.70811 23.335L8.73438 20.4311L8.12363 22.269C7.78369 23.2831 6.83301 23.9688 5.76018 23.9688H5.04688C4.53581 23.9688 4.125 23.5597 4.125 23.0469C4.125 22.5341 4.53581 22.125 5.04688 22.125H5.76018C6.04106 22.125 6.28593 21.9449 6.37207 21.6857L7.42358 18.538C7.61084 17.9708 8.13516 17.5905 8.73438 17.5905C9.33359 17.5905 9.85791 17.9722 10.0452 18.5412L10.8449 20.9398C11.9828 20.0035 13.9637 20.378 14.6476 21.7534C14.7629 21.9838 14.9933 22.1279 15.2307 22.1279H17.9531V22.125Z" fill="white"/>
</svg>
