<svg width="22" height="29" viewBox="0 0 22 29" fill="none" xmlns="http://www.w3.org/2000/svg">
<path d="M14.4826 0.5V7.5H21.4478L14.4826 0.5ZM12.7413 7.5V0.5H3.16419C1.72163 0.5 0.552246 1.67523 0.552246 3.125V25.875C0.552246 27.3242 1.72163 28.5 3.16419 28.5H18.8358C20.2784 28.5 21.4478 27.3248 21.4478 25.875V9.25H14.5316C13.5194 9.25 12.7413 8.46797 12.7413 7.5ZM15.3532 23.25H6.64677C6.16792 23.25 5.77613 22.8563 5.77613 22.375C5.77613 21.8937 6.16792 21.5 6.64677 21.5H15.3532C15.8341 21.5 16.2239 21.8917 16.2239 22.375C16.2239 22.8563 15.8321 23.25 15.3532 23.25ZM15.3532 19.75H6.64677C6.16792 19.75 5.77613 19.3563 5.77613 18.875C5.77613 18.3937 6.16792 18 6.64677 18H15.3532C15.8341 18 16.2239 18.3917 16.2239 18.875C16.2239 19.3563 15.8321 19.75 15.3532 19.75ZM16.2239 15.375C16.2239 15.8563 15.8321 16.25 15.3532 16.25H6.64677C6.16792 16.25 5.77613 15.8563 5.77613 15.375C5.77613 14.8937 6.16792 14.5 6.64677 14.5H15.3532C15.8321 14.5 16.2239 14.8937 16.2239 15.375Z" fill="white"/>
</svg>
