<svg width="41" height="29" viewBox="0 0 41 29" fill="none" xmlns="http://www.w3.org/2000/svg">
<path fill-rule="evenodd" clip-rule="evenodd" d="M3.56148 0.62716C2.67289 0.839602 2.0996 1.16667 1.4732 1.81878C0.419393 2.91595 0.415527 2.95377 0.415527 12.4098C0.415527 18.097 0.477882 21.2172 0.601078 21.7068C0.827973 22.608 1.72665 23.6924 2.66045 24.1917C3.35425 24.5628 3.38954 24.5642 12.2618 24.5642H21.1671L21.4432 23.5411C21.5952 22.9784 21.8131 22.3355 21.9274 22.1125C22.2073 21.5671 33.7667 9.95543 34.618 9.36466C34.9877 9.10802 35.5739 8.80566 35.9205 8.69272L36.5508 8.48733L36.5471 6.02123C36.5429 3.24823 36.3772 2.64502 35.3528 1.67307C34.0756 0.461274 35.0896 0.533041 18.8193 0.50262C10.5783 0.487157 3.91964 0.541612 3.56148 0.62716ZM28.477 9.05961C28.7096 9.47559 28.7096 9.56803 28.477 9.984L28.2185 10.4462L17.6697 10.4896C10.5894 10.5185 7.01332 10.4751 6.79348 10.3575C6.35498 10.1228 6.33146 8.94499 6.7602 8.69423C6.95416 8.58078 10.6558 8.53506 17.6364 8.55977L28.2185 8.59742L28.477 9.05961ZM36.5748 10.6512C36.3568 10.6926 35.616 11.2684 34.928 11.9309L33.6776 13.1353L35.8691 15.3164L38.0606 17.4974L39.0831 16.4929C40.3179 15.2799 40.5845 14.8088 40.5845 13.8396C40.5845 13.0436 40.0451 12.1983 38.9691 11.3082C38.1243 10.6096 37.5807 10.4603 36.5748 10.6512ZM22.4264 15.1102C22.659 15.5261 22.659 15.6186 22.4264 16.0346L22.1679 16.4968L14.6453 16.5404C9.65069 16.5695 7.01248 16.5252 6.79449 16.4085C6.35515 16.1734 6.33095 14.9959 6.7602 14.7444C6.95197 14.6322 9.68514 14.5855 14.6111 14.6102L22.1679 14.648L22.4264 15.1102ZM27.8708 18.9758L23.6533 23.2196L23.1133 25.4754C22.3081 28.8382 22.3928 28.9113 26.0435 28.0074L28.0575 27.5088L32.3036 23.265L36.5496 19.0213L34.4097 16.8768C33.2327 15.6971 32.229 14.732 32.1789 14.732C32.129 14.732 30.1903 16.6418 27.8708 18.9758Z" fill="white"/>
</svg>
