<svg width="38" height="34" viewBox="0 0 38 34" fill="none" xmlns="http://www.w3.org/2000/svg">
<path d="M20.1624 1.57034V2.25737C20.576 2.33588 20.9767 2.43403 21.3385 2.53218C22.1657 2.75464 22.6569 3.61833 22.4371 4.45584C22.2174 5.29336 21.3644 5.79063 20.5372 5.56817C19.8328 5.37842 19.1737 5.24756 18.5856 5.24101C18.1139 5.23447 17.6356 5.35225 17.3319 5.52891C17.1962 5.61397 17.1316 5.68594 17.1057 5.7252C17.0863 5.75792 17.0605 5.80372 17.0605 5.90841C17.0605 5.92804 17.0605 5.94112 17.0605 5.94767C17.0734 5.96075 17.1187 6.02618 17.2738 6.11779C17.6486 6.3468 18.2043 6.52346 19.0444 6.77864L19.1026 6.79827C19.8199 7.01419 20.7763 7.30863 21.5518 7.79936C22.4371 8.36207 23.2385 9.29773 23.2579 10.7372C23.2772 12.2094 22.5211 13.2825 21.5324 13.9106C21.0994 14.1789 20.6342 14.3686 20.1559 14.4864V15.18C20.1559 16.0502 19.4645 16.7503 18.605 16.7503C17.7455 16.7503 17.054 16.0502 17.054 15.18V14.4341C16.4401 14.2836 15.8779 14.0873 15.3997 13.9237C15.264 13.8779 15.1347 13.8321 15.0119 13.7928C14.1977 13.518 13.7583 12.6282 14.0297 11.8037C14.3011 10.9793 15.18 10.5344 15.9942 10.8092C16.1622 10.8681 16.3173 10.9204 16.466 10.9728C17.3448 11.2737 17.9781 11.4897 18.6567 11.5158C19.1737 11.5355 19.6325 11.4111 19.8975 11.2476C20.0202 11.1691 20.0784 11.1036 20.1042 11.0578C20.1301 11.0186 20.1624 10.94 20.1559 10.7896V10.7765C20.1559 10.711 20.1559 10.6391 19.8975 10.4755C19.5291 10.2399 18.9733 10.0567 18.1462 9.80155L18.0234 9.76229C17.3255 9.55291 16.4078 9.27156 15.6711 8.82008C14.7987 8.29009 13.9586 7.3806 13.9521 5.93458C13.9457 4.43621 14.7858 3.40895 15.7422 2.83316C16.1558 2.58452 16.6017 2.4144 17.0476 2.29662V1.57034C17.0476 0.70011 17.739 0 18.5985 0C19.458 0 20.1495 0.70011 20.1495 1.57034H20.1624ZM36.7188 22.0044C37.5654 23.1691 37.3198 24.8048 36.1695 25.662L27.9883 31.7667C26.4761 32.8921 24.6537 33.5006 22.7732 33.5006H12.4076H2.06794C0.92411 33.5006 0 32.5649 0 31.4068V27.2192C0 26.0611 0.92411 25.1255 2.06794 25.1255H4.44607L7.34765 22.7699C8.81459 21.5791 10.637 20.9379 12.5175 20.9379H17.5775H18.6115H22.7473C23.8912 20.9379 24.8153 21.8735 24.8153 23.0317C24.8153 24.1898 23.8912 25.1255 22.7473 25.1255H18.6115H17.5775C17.0088 25.1255 16.5435 25.5966 16.5435 26.1724C16.5435 26.7481 17.0088 27.2192 17.5775 27.2192H25.371L33.1064 21.4482C34.2567 20.5911 35.8723 20.8397 36.7188 22.0044ZM12.511 25.1255H12.4529C12.4723 25.1255 12.4916 25.1255 12.511 25.1255Z" fill="white"/>
</svg>
