<svg width="37" height="36" viewBox="0 0 37 36" fill="none" xmlns="http://www.w3.org/2000/svg">
<path d="M33.5961 0.66382C33.807 0.878203 33.9688 1.125 34.0812 1.38867C34.1867 1.65234 34.1867 1.94062 34.25 2.24297V2.25V9C34.25 10.2445 33.2445 11.25 32 11.25C30.7555 11.25 29.75 10.2445 29.75 9V7.68516L22.3391 15.0891C21.5094 15.9258 20.1805 15.975 19.2875 15.2086L12.8117 9.71016L6.46391 15.2086C5.52102 16.0172 4.1 15.9047 3.29141 14.9625C2.48281 14.0203 2.5925 12.6 3.53539 11.7914L11.4125 5.04141C12.2562 4.3193 13.4938 4.3193 14.3375 5.04141L20.6305 10.4344L26.5648 4.5H25.25C24.0055 4.5 23 3.49242 23 2.25C23 1.00758 24.0055 0 25.25 0H31.9367C32.6188 0 33.1813 0.249891 33.5891 0.654258L33.5961 0.66382ZM0.5 21.375C0.5 19.5117 2.01102 18 3.875 18H33.125C34.9883 18 36.5 19.5117 36.5 21.375V32.625C36.5 34.4883 34.9883 36 33.125 36H3.875C2.01102 36 0.5 34.4883 0.5 32.625V21.375ZM3.875 32.625H7.25C7.25 30.7617 5.73898 29.25 3.875 29.25V32.625ZM3.875 21.375V24.75C5.73898 24.75 7.25 23.2383 7.25 21.375H3.875ZM33.125 29.25C31.2617 29.25 29.75 30.7617 29.75 32.625H33.125V29.25ZM29.75 21.375C29.75 23.2383 31.2617 24.75 33.125 24.75V21.375H29.75ZM18.5 22.5C16.018 22.5 14 24.518 14 27C14 29.482 16.018 31.5 18.5 31.5C20.982 31.5 23 29.482 23 27C23 24.518 20.982 22.5 18.5 22.5Z" fill="white"/>
</svg>
