<svg width="29" height="29" viewBox="0 0 29 29" fill="none" xmlns="http://www.w3.org/2000/svg">
<path d="M16.25 0.5C17.218 0.5 18 1.28367 18 2.25V5.75C18 6.71797 17.218 7.5 16.25 7.5H11.875V9.25H23.693C25.4703 9.25 26.9414 10.5133 27.1984 12.225L28.4398 20.4117C28.4781 20.6688 28.5 20.9312 28.5 21.1937V25C28.5 26.9305 26.9305 28.5 25 28.5H4C2.0668 28.5 0.5 26.9305 0.5 25V21.1937C0.5 20.9312 0.519808 20.6688 0.559227 20.4117L1.79938 12.225C2.05859 10.5133 3.52914 9.25 5.25945 9.25H8.32578V7.5H3.95078C3.03367 7.5 2.20078 6.71797 2.20078 5.75V2.25C2.20078 1.28367 3.03367 0.5 3.95078 0.5H16.25ZM5.75 3.125C5.26656 3.125 4.875 3.51656 4.875 4C4.875 4.48344 5.26656 4.875 5.75 4.875H14.5C14.9813 4.875 15.375 4.48344 15.375 4C15.375 3.51656 14.9813 3.125 14.5 3.125H5.75ZM4.875 25H24.125C24.6063 25 25 24.6063 25 24.125C25 23.6437 24.6063 23.25 24.125 23.25H4.875C4.39156 23.25 4 23.6437 4 24.125C4 24.6063 4.39156 25 4.875 25ZM6.625 12.3125C5.90039 12.3125 5.3125 12.8977 5.3125 13.625C5.3125 14.3523 5.90039 14.9375 6.625 14.9375C7.35234 14.9375 7.9375 14.3523 7.9375 13.625C7.9375 12.8977 7.35234 12.3125 6.625 12.3125ZM11.875 14.9375C12.6023 14.9375 13.1875 14.3523 13.1875 13.625C13.1875 12.8977 12.6023 12.3125 11.875 12.3125C11.1477 12.3125 10.5625 12.8977 10.5625 13.625C10.5625 14.3523 11.1477 14.9375 11.875 14.9375ZM9.25 16.6875C8.52266 16.6875 7.9375 17.2727 7.9375 18C7.9375 18.7273 8.52266 19.3125 9.25 19.3125C9.97734 19.3125 10.5625 18.7273 10.5625 18C10.5625 17.2727 9.97734 16.6875 9.25 16.6875ZM17.125 14.9375C17.8523 14.9375 18.4375 14.3523 18.4375 13.625C18.4375 12.8977 17.8523 12.3125 17.125 12.3125C16.3977 12.3125 15.8125 12.8977 15.8125 13.625C15.8125 14.3523 16.3977 14.9375 17.125 14.9375ZM14.5 16.6875C13.7727 16.6875 13.1875 17.2727 13.1875 18C13.1875 18.7273 13.7727 19.3125 14.5 19.3125C15.2273 19.3125 15.8125 18.7273 15.8125 18C15.8125 17.2727 15.2273 16.6875 14.5 16.6875ZM22.375 14.9375C23.1023 14.9375 23.6875 14.3523 23.6875 13.625C23.6875 12.8977 23.1023 12.3125 22.375 12.3125C21.6477 12.3125 21.0625 12.8977 21.0625 13.625C21.0625 14.3523 21.6477 14.9375 22.375 14.9375ZM19.75 16.6875C19.0227 16.6875 18.4375 17.2727 18.4375 18C18.4375 18.7273 19.0227 19.3125 19.75 19.3125C20.4773 19.3125 21.0625 18.7273 21.0625 18C21.0625 17.2727 20.4773 16.6875 19.75 16.6875Z" fill="white"/>
</svg>
