<svg width="28" height="29" viewBox="0 0 28 29" fill="none" xmlns="http://www.w3.org/2000/svg">
<path d="M19.25 14.5C19.25 15.7141 19.1844 16.8844 19.0695 18H8.93047C8.81563 16.8844 8.70078 15.7141 8.70078 14.5C8.70078 13.2859 8.81563 12.1156 8.93047 11H19.0695C19.1844 12.1156 19.25 13.2859 19.25 14.5ZM27.557 11C27.8469 12.1211 28 13.2914 28 14.5C28 15.7086 27.8469 16.8789 27.557 18H20.825C20.9398 16.8734 21 15.6539 21 14.5C21 13.2969 20.9398 12.1266 20.825 11H27.557ZM26.9828 9.25H20.6008C20.0539 5.75766 18.9711 2.83078 17.5766 0.961672C21.8641 2.09086 25.3422 5.19984 26.9828 9.25ZM18.8289 9.25H9.17109C9.50469 7.25937 10.0187 5.49734 10.6477 4.07383C11.2219 2.78266 11.8617 1.84586 12.4797 1.25523C13.0922 0.673797 13.6008 0.5 14 0.5C14.3992 0.5 14.9078 0.673797 15.5203 1.25523C16.1383 1.84586 16.7781 2.78266 17.3523 4.07383C17.9812 5.49734 18.4953 7.25937 18.8289 9.25ZM1.01773 9.25C2.65727 5.19984 6.13594 2.09086 10.4234 0.961672C9.02891 2.83078 7.94609 5.75766 7.39922 9.25H1.01773ZM7.175 11C7.06016 12.1266 6.95078 13.2969 6.95078 14.5C6.95078 15.6539 7.06016 16.8734 7.175 18H0.441055C0.153125 16.8789 0 15.7086 0 14.5C0 13.2914 0.153125 12.1211 0.441055 11H7.175ZM10.6477 24.9234C10.0187 23.5016 9.50469 21.7406 9.17109 19.75H18.8289C18.4953 21.7406 17.9812 23.5016 17.3523 24.9234C16.7781 26.2195 16.1383 27.1547 15.5203 27.7453C14.9078 28.325 14.3992 28.5 13.9508 28.5C13.6008 28.5 13.0922 28.325 12.4797 27.7453C11.8617 27.1547 11.2219 26.2195 10.6477 24.9234ZM10.4234 28.0406C6.13594 26.9086 2.65727 23.8023 1.01773 19.75H7.39922C7.94609 23.2445 9.02891 26.1703 10.4234 28.0406ZM17.5766 28.0406C18.9711 26.1703 20.0539 23.2445 20.6008 19.75H26.9828C25.3422 23.8023 21.8641 26.9086 17.5766 28.0406Z" fill="white"/>
</svg>
