<svg width="31" height="32" viewBox="0 0 31 32" fill="none" xmlns="http://www.w3.org/2000/svg">
<path d="M11.0954 1.62094C11.0954 0.739743 10.3811 0.0253906 9.49989 0.0253906H1.59555C0.714353 0.0253906 0 0.739742 0 1.62094V9.52528C0 10.4065 0.714352 11.1208 1.59555 11.1208H9.49989C10.3811 11.1208 11.0954 10.4065 11.0954 9.52528V1.62094ZM9.02689 7.45673C9.02689 8.33793 8.31254 9.05228 7.43134 9.05228H3.6641C2.7829 9.05228 2.06855 8.33793 2.06855 7.45673V3.68949C2.06855 2.80829 2.7829 2.09394 3.6641 2.09394H7.43134C8.31254 2.09394 9.02689 2.80829 9.02689 3.68949V7.45673Z" fill="white"/>
<path d="M6.33655 3.16257H4.75815C3.87695 3.16257 3.1626 3.87692 3.1626 4.75812V6.33652C3.1626 7.21772 3.87695 7.93207 4.75815 7.93207H6.33655C7.21775 7.93207 7.9321 7.21772 7.9321 6.33652V4.75812C7.9321 3.87692 7.21775 3.16257 6.33655 3.16257Z" fill="white"/>
<path d="M0 29.4273C0 30.3085 0.714352 31.0229 1.59555 31.0229H9.49989C10.3811 31.0229 11.0954 30.3085 11.0954 29.4273V21.523C11.0954 20.6418 10.3811 19.9274 9.49989 19.9274H1.59555C0.714353 19.9274 0 20.6418 0 21.523V29.4273ZM2.06855 23.5933C2.06855 22.7122 2.7829 21.9978 3.6641 21.9978H7.43134C8.31254 21.9978 9.02689 22.7121 9.02689 23.5933V27.3588C9.02689 28.24 8.31254 28.9543 7.43134 28.9543H3.6641C2.7829 28.9543 2.06855 28.24 2.06855 27.3588V23.5933Z" fill="white"/>
<path d="M6.33655 23.0639H4.75815C3.87695 23.0639 3.1626 23.7782 3.1626 24.6594V26.2378C3.1626 27.119 3.87695 27.8334 4.75815 27.8334H6.33655C7.21775 27.8334 7.9321 27.119 7.9321 26.2378V24.6594C7.9321 23.7782 7.21775 23.0639 6.33655 23.0639Z" fill="white"/>
<path d="M30.999 1.59529C30.9989 0.714193 30.2846 0 29.4035 0H21.4989C20.6177 0 19.9033 0.714352 19.9033 1.59555V9.49989C19.9033 10.3811 20.6177 11.0954 21.4989 11.0954H29.4048C30.2861 11.0954 31.0005 10.3809 31.0003 9.49962L30.999 1.59529ZM28.9284 7.42405C28.9284 8.30525 28.214 9.0196 27.3328 9.0196H23.5674C22.6862 9.0196 21.9719 8.30525 21.9719 7.42405V3.6641C21.9719 2.7829 22.6862 2.06855 23.5674 2.06855H27.3328C28.214 2.06855 28.9284 2.7829 28.9284 3.6641V7.42405Z" fill="white"/>
<path d="M26.2389 3.13644H24.6605C23.7793 3.13644 23.0649 3.8508 23.0649 4.73199V6.3104C23.0649 7.1916 23.7793 7.90595 24.6605 7.90595H26.2389C27.1201 7.90595 27.8344 7.1916 27.8344 6.3104V4.73199C27.8344 3.8508 27.1201 3.13644 26.2389 3.13644Z" fill="white"/>
<path d="M22.0319 19.9274H14.1495C13.5783 19.9274 13.1152 20.3905 13.1152 20.9617C13.1152 21.5329 13.5783 21.996 14.1495 21.996H22.0319C22.6031 21.996 23.0661 21.5329 23.0661 20.9617C23.0661 20.3905 22.6031 19.9274 22.0319 19.9274Z" fill="white"/>
<path d="M16.6199 1.92629C16.6199 2.4195 16.2201 2.81932 15.7269 2.81932H14.1504C13.5787 2.81932 13.1152 3.28279 13.1152 3.85451V3.85451C13.1152 4.42623 13.5787 4.88969 14.1504 4.88969H15.0244C15.9056 4.88969 16.6199 5.60405 16.6199 6.48524V12.8987C16.6199 13.4699 17.083 13.933 17.6542 13.933V13.933C18.2254 13.933 18.6885 13.4699 18.6885 12.8987V2.06754C18.6885 1.49632 18.2254 1.03326 17.6542 1.03326H17.513C17.0197 1.03326 16.6199 1.43309 16.6199 1.92629V1.92629Z" fill="white"/>
<path d="M13.8904 15.1749C13.8904 14.7627 14.2245 14.4286 14.6367 14.4286V14.4286C15.0489 14.4286 15.383 14.0944 15.383 13.6822V13.3943C15.383 12.8231 14.92 12.36 14.3488 12.36H9.4535C8.88229 12.36 8.41923 12.8231 8.41923 13.3943V13.3943C8.41923 13.9655 8.88229 14.4286 9.4535 14.4286H10.7976C11.3633 14.4286 11.8219 14.8871 11.8219 15.4528V15.4528C11.8219 16.0185 11.3633 16.4771 10.7976 16.4771H8.96689C8.39568 16.4771 7.93262 16.9401 7.93262 17.5113V17.5113C7.93262 18.0825 8.39568 18.5456 8.96689 18.5456H12.2948C13.176 18.5456 13.8904 17.8313 13.8904 16.9501V15.1749Z" fill="white"/>
<path d="M14.5329 9.89919V7.35132C14.5329 6.78011 14.0698 6.31705 13.4986 6.31705C12.9274 6.31705 12.4644 6.78011 12.4644 7.35132V9.89919C12.4644 10.4704 12.9274 10.9335 13.4986 10.9335C14.0698 10.9335 14.5329 10.4704 14.5329 9.89919Z" fill="white"/>
<path d="M21.4973 12.36C20.6161 12.36 19.9018 13.0744 19.9018 13.9556V14.8815C19.9018 15.7627 19.1874 16.4771 18.3062 16.4771H17.61C17.0387 16.4771 16.5757 16.9401 16.5757 17.5113V17.5113C16.5757 18.0825 17.0387 18.5456 17.61 18.5456H20.3766C21.2578 18.5456 21.9721 17.8313 21.9721 16.9501V16.0241C21.9721 15.1429 22.6865 14.4286 23.5677 14.4286H25.5388C25.7965 14.4286 26.0053 14.6374 26.0053 14.8951V14.8951C26.0053 15.1528 25.7965 15.3617 25.5388 15.3617H25.2918C24.8978 15.3617 24.5783 15.6811 24.5783 16.0752V16.396C24.5783 16.9672 25.0414 17.4302 25.6126 17.4302H28.9296C29.5008 17.4302 29.9638 16.9672 29.9638 16.396V16.3067C29.9638 15.7848 29.5408 15.3617 29.0189 15.3617V15.3617C28.497 15.3617 28.0739 14.9386 28.0739 14.4167V13.8609C28.0739 13.032 27.4019 12.36 26.5731 12.36H21.4973Z" fill="white"/>
<path d="M28.073 19.8156C28.073 19.2443 27.6099 18.7813 27.0387 18.7813V18.7813C26.4675 18.7813 26.0045 19.2443 26.0045 19.8156V22.2787C26.0045 22.8353 25.5532 23.2865 24.9966 23.2865V23.2865C24.44 23.2865 23.9888 23.7378 23.9888 24.2944V24.3208C23.9888 24.892 24.4518 25.3551 25.023 25.3551H26.4775C27.3587 25.3551 28.073 24.6407 28.073 23.7595V19.8156Z" fill="white"/>
<path d="M17.919 26.8641C17.919 26.0306 18.5946 25.355 19.428 25.355H19.9028C20.474 25.355 20.9371 24.892 20.9371 24.3207V24.3207C20.9371 23.7495 20.474 23.2865 19.9028 23.2865H17.4442C16.563 23.2865 15.8486 24.0008 15.8486 24.882V28.9545C15.8486 29.5262 16.3121 29.9897 16.8838 29.9897V29.9897C17.4555 29.9897 17.919 29.5262 17.919 28.9545V26.8641Z" fill="white"/>
<path d="M14.1481 28.9554V25.356C14.1481 24.7848 13.6851 24.3217 13.1139 24.3217C12.5427 24.3217 12.0796 24.7848 12.0796 25.356V28.9554C12.0796 29.5267 12.5427 29.9897 13.1139 29.9897C13.6851 29.9897 14.1481 29.5267 14.1481 28.9554Z" fill="white"/>
<path d="M23.064 29.9893C23.6352 29.9893 24.0983 29.5262 24.0983 28.955V27.7157C24.0983 26.8345 23.384 26.1201 22.5028 26.1201H20.6109C20.0397 26.1201 19.5767 26.5832 19.5767 27.1544V27.1544C19.5767 27.7256 20.0397 28.1887 20.6109 28.1887H21.1294C21.6267 28.1887 22.0298 28.5918 22.0298 29.089V29.089C22.0298 29.5862 22.4328 29.9893 22.9301 29.9893H23.064Z" fill="white"/>
<path d="M30.9996 27.2797C30.9996 26.7079 30.5361 26.2445 29.9644 26.2445V26.2445C29.3926 26.2445 28.9292 26.7079 28.9292 27.2797V27.5995C28.9292 28.3479 28.3225 28.9545 27.5741 28.9545H26.5508C25.9791 28.9545 25.5156 29.418 25.5156 29.9897V29.9897C25.5156 30.5614 25.9791 31.0249 26.5508 31.0249H29.404C30.2852 31.0249 30.9996 30.3106 30.9996 29.4294V27.2797Z" fill="white"/>
<path d="M0 14.7849C0 15.3561 0.463061 15.8191 1.03427 15.8191H1.37326C1.75726 15.8191 2.06855 15.5078 2.06855 15.1238V15.1238C2.06855 14.7399 2.37984 14.4286 2.76384 14.4286H3.29145C3.96684 14.4286 4.51436 14.9761 4.51436 15.6515V17.207C4.51436 17.7782 4.97742 18.2413 5.54863 18.2413V18.2413C6.11984 18.2413 6.58291 17.7782 6.58291 17.207V13.9556C6.58291 13.0744 5.86855 12.36 4.98736 12.36H1.59555C0.714353 12.36 0 13.0744 0 13.9556V14.7849Z" fill="white"/>
</svg>
