<svg width="29" height="29" viewBox="0 0 29 29" fill="none" xmlns="http://www.w3.org/2000/svg">
<path fill-rule="evenodd" clip-rule="evenodd" d="M13.859 0.655538C13.283 0.821087 12.0787 1.56686 10.9191 2.47584L10.1078 3.11193H8.04557C3.94347 3.11193 3.20747 3.65597 3.20091 6.69331L3.1977 8.15976L2.18326 8.93091C1.02501 9.81145 0.525008 10.6288 0.599395 11.5196C0.643153 12.0426 0.749774 12.1439 3.05184 13.8502C4.3755 14.8314 5.50779 15.639 5.56789 15.6449C5.62798 15.6509 5.67728 13.4241 5.67728 10.6965V5.73736H14.5017H23.326V10.7086C23.326 13.5935 23.3812 15.6596 23.4573 15.6313C23.5295 15.6046 24.6764 14.7951 26.006 13.8325L28.4235 12.0822L28.4273 11.4235C28.4325 10.5022 28.0563 9.89736 26.8872 8.9471L25.8785 8.12738L25.8056 6.44652C25.7379 4.88599 25.7034 4.72744 25.324 4.23036C24.6045 3.28768 24.2896 3.19929 21.4316 3.13716L18.8809 3.08173L18.004 2.39591C16.7773 1.43646 15.7681 0.831443 15.0851 0.646349C14.7642 0.559272 14.4688 0.493636 14.4287 0.500492C14.3886 0.507201 14.1322 0.577067 13.859 0.655538ZM13.8453 7.63351C13.6849 7.79395 13.5526 8.10565 13.5514 8.32633C13.5483 8.87315 13.4242 9.02061 12.7951 9.22569C12.1512 9.43558 11.4646 10.1735 11.218 10.921C10.9945 11.5981 11.1248 12.6329 11.4998 13.1595C11.8688 13.6777 12.9233 14.2368 14.2829 14.6351C15.9475 15.1227 16.3358 15.629 15.3583 16.0374C14.7622 16.2865 14.1189 16.2219 12.8497 15.7852C11.9085 15.4614 11.3914 15.6141 11.1551 16.2858C10.919 16.9573 11.2838 17.4248 12.3164 17.774C13.5052 18.1759 13.5536 18.2185 13.5536 18.8648C13.5536 19.4929 13.9334 19.8855 14.5408 19.8855C15.0494 19.8855 15.5956 19.2621 15.5956 18.6816C15.5956 18.2566 15.6612 18.1701 16.1061 18.0092C17.2889 17.5816 17.9293 16.6615 17.9293 15.3902C17.9293 14.0817 16.9454 13.208 14.7716 12.5864C13.7821 12.3034 13.116 11.9567 13.116 11.7245C13.116 11.1673 14.5428 10.9381 15.7534 11.3008C16.8228 11.6211 17.5912 10.947 17.255 9.98327C17.1585 9.70658 16.9141 9.52295 16.3605 9.31087C15.656 9.04103 15.5987 8.98313 15.5972 8.53856C15.594 7.57167 14.4817 6.99713 13.8453 7.63351ZM0.575474 20.3497C0.578392 25.9114 0.599687 26.4223 0.850124 26.9741C1.14213 27.6169 1.66255 28.0546 2.45368 28.323C3.1395 28.5556 25.7671 28.5606 26.6078 28.3284C27.3314 28.1284 28.2403 27.2093 28.3568 26.5595C28.4036 26.2983 28.4232 23.4507 28.4001 20.2315L28.3581 14.3787L22.5456 18.5807C19.3487 20.8918 16.4607 22.8944 16.1278 23.0308C15.3383 23.3543 13.6681 23.3619 12.9229 23.0454C12.3917 22.8198 10.7798 21.6898 4.36456 17.0457C2.80024 15.9133 1.3071 14.8374 1.0463 14.6549L0.572266 14.3231L0.575474 20.3497Z" fill="white"/>
</svg>
