<svg width="36" height="29" viewBox="0 0 36 29" fill="none" xmlns="http://www.w3.org/2000/svg">
<path fill-rule="evenodd" clip-rule="evenodd" d="M3.17397 0.626532C2.29007 0.838234 1.7203 1.16356 1.09789 1.81153C0.0308597 2.92234 0.0463992 2.73703 0.0463992 14.3457C0.0463992 21.7785 0.103377 25.0869 0.240557 25.6317C0.374562 26.1643 0.67198 26.6478 1.20132 27.1947C2.55457 28.5926 1.73483 28.5314 18.4396 28.4794L33.0465 28.4342L33.7464 28.06C34.1316 27.8542 34.6768 27.4406 34.9583 27.1411C36.012 26.0196 35.9854 26.3726 35.9338 14.2184L35.887 3.17731L35.3857 2.37278C35.0372 1.8132 34.6046 1.41018 33.9655 1.04927L33.0465 0.530288L18.4262 0.502719C10.1521 0.487012 3.53154 0.540815 3.17397 0.626532ZM11.9035 21.0405C12.1346 21.4538 12.1346 21.5461 11.9035 21.9595L11.6467 22.419L9.18567 22.4652C7.67752 22.4935 6.59646 22.4427 6.39311 22.3341C5.95166 22.0978 5.92409 20.9294 6.35401 20.6755C6.52879 20.5725 7.65229 20.5187 9.14657 20.5419L11.6467 20.581L11.9035 21.0405ZM23.9338 21.0405C24.165 21.4538 24.165 21.5461 23.9338 21.9595L23.6768 22.419L19.2077 22.4634C16.3164 22.4923 14.6226 22.446 14.4102 22.3322C13.9718 22.0976 13.9464 20.9279 14.3743 20.6764C14.5596 20.5676 16.317 20.5187 19.1717 20.5429L23.6768 20.581L23.9338 21.0405Z" fill="white"/>
</svg>
