<svg width="37" height="29" viewBox="0 0 37 29" fill="none" xmlns="http://www.w3.org/2000/svg">
<path d="M32.5 0.107147C34.7062 0.107147 36.5 1.89138 36.5 4.09286V6.08572H0.5V4.09286C0.5 1.89138 2.29063 0.107147 4.5 0.107147H32.5ZM36.5 24.0214C36.5 26.2198 34.7062 28.0071 32.5 28.0071H4.5C2.29063 28.0071 0.5 26.2198 0.5 24.0214V12.0643H36.5V24.0214ZM7.5 20.0357C6.95 20.0357 6.5 20.4841 6.5 21.0321C6.5 21.5802 6.95 22.0286 7.5 22.0286H11.5C12.05 22.0286 12.5 21.5802 12.5 21.0321C12.5 20.4841 12.05 20.0357 11.5 20.0357H7.5ZM15.5 22.0286H23.5C24.05 22.0286 24.5 21.5802 24.5 21.0321C24.5 20.4841 24.05 20.0357 23.5 20.0357H15.5C14.95 20.0357 14.5 20.4841 14.5 21.0321C14.5 21.5802 14.95 22.0286 15.5 22.0286Z" fill="white"/>
</svg>
