<svg width="32" height="32" viewBox="0 0 32 32" fill="none" xmlns="http://www.w3.org/2000/svg">
<path d="M31.953 24.1866L30.4998 30.4863C30.2956 31.3769 29.5128 32 28.5958 32C12.8262 31.9988 0 19.1744 0 3.40645C0 2.49024 0.623121 1.70653 1.51389 1.50342L7.81449 0.0503654C8.73208 -0.162249 9.66967 0.313977 10.051 1.18281L12.9587 7.96372C13.2986 8.76243 13.0694 9.693 12.3974 10.2417L9.0321 12.9435C11.1561 17.2695 14.6739 20.7868 19.0018 22.9117L21.7571 19.5494C22.3001 18.8757 23.2378 18.6426 24.0366 18.9885L30.8185 21.8952C31.6342 22.3242 32.1655 23.2742 31.953 24.1866Z" fill="white"/>
</svg>
