<svg width="35" height="31" viewBox="0 0 35 31" fill="none" xmlns="http://www.w3.org/2000/svg">
<path d="M24.3056 5.8125L24.2509 5.85246C23.9835 5.82582 23.6615 5.8125 23.3333 5.8125H15.5556C14.553 5.8125 13.5807 5.93844 12.651 6.17578C12.645 6.05469 12.6389 5.9348 12.6389 5.8125C12.6389 2.6023 15.197 0 18.4722 0C21.6927 0 24.3056 2.6023 24.3056 5.8125ZM23.3333 7.75C23.546 7.75 23.704 7.75605 23.9653 7.76816C24.2266 7.78633 24.4818 7.81055 24.7309 7.84688C25.8003 6.60566 27.3924 5.8125 29.1667 5.8125H31.1111L29.9688 10.3596C30.9349 11.2557 31.7127 12.3455 32.2474 13.5625H33.0556C34.1311 13.5625 35 14.4283 35 15.5V21.3125C35 22.3842 34.1311 23.25 33.0556 23.25H31.1111C30.5582 23.9826 29.9019 24.6365 29.1667 25.1875V29.0625C29.1667 30.1342 28.2977 31 27.2222 31H25.2778C24.2023 31 23.3333 30.1342 23.3333 29.0625V27.125H15.5556V29.0625C15.5556 30.1342 14.6866 31 13.6111 31H11.6667C10.5911 31 9.72222 30.1342 9.72222 29.0625V25.1875C7.60156 23.6012 6.15538 21.1793 5.88134 18.4062H4.13194C1.84965 18.4062 0 16.5656 0 14.2891C0 12.0125 1.84965 10.1719 4.13194 10.1719H4.375C5.18012 10.1719 5.83333 10.8197 5.83333 11.625C5.83333 12.4303 5.18012 13.0781 4.375 13.0781H4.13194C3.4605 13.0781 2.91667 13.5686 2.91667 14.2891C2.91667 14.9551 3.4605 15.5 4.13194 15.5H6.02778C6.76302 11.8793 9.53385 8.99121 13.0946 8.06484C13.8785 7.85898 14.6502 7.75 15.5556 7.75H23.3333ZM25.7639 14.5312C24.9557 14.5312 24.3056 15.1791 24.3056 15.9844C24.3056 16.7896 24.9557 17.4375 25.7639 17.4375C26.572 17.4375 27.2222 16.7896 27.2222 15.9844C27.2222 15.1791 26.572 14.5312 25.7639 14.5312Z" fill="#1338A2"/>
</svg>
