<svg width="30" height="30" viewBox="0 0 30 30" fill="none" xmlns="http://www.w3.org/2000/svg">
<path d="M28.125 10.5234C29.2148 11.0391 30 12.4277 30 14.0625C30 15.6973 29.2148 17.0859 28.125 17.6016V26.25C28.125 27.0059 27.668 27.6914 26.9648 27.9844C26.2676 28.2715 25.459 28.1133 24.9258 27.5742L22.3652 24.9668C19.5527 22.1543 15.7383 20.625 11.7598 20.625H11.25V28.125C11.25 29.1621 10.4121 30 9.375 30H5.625C4.58965 30 3.75 29.1621 3.75 28.125V20.625C1.67871 20.625 0 18.9434 0 16.875V11.25C0 9.18164 1.67871 7.5 3.75 7.5H11.7598C15.7383 7.5 19.5527 5.91796 22.3652 3.10663L24.9258 0.549193C25.459 0.0129718 26.2676 -0.147429 26.9648 0.142786C27.668 0.433001 28.125 1.11679 28.125 1.87499V10.5234ZM11.7598 11.25H11.25V16.875H11.7598C16.4356 16.875 20.9297 18.6211 24.375 21.7559V6.36914C20.9297 9.5039 16.4356 11.25 11.7598 11.25Z" fill="#1338A2"/>
</svg>
