<svg width="33" height="33" viewBox="0 0 33 33" fill="none" xmlns="http://www.w3.org/2000/svg">
<path fill-rule="evenodd" clip-rule="evenodd" d="M3.17927 0.14714C2.40813 0.333122 1.86955 0.648564 1.15097 1.33511C-0.0486249 2.48141 -0.03583 2.34279 0.0184611 13.7452C0.0665277 23.7998 0.0717146 23.9341 0.440168 24.617C0.645575 24.9973 1.0346 25.5182 1.30468 25.7746C2.26532 26.6858 2.76033 26.7776 6.71822 26.7776H10.3547V29.6814C10.3547 32.6514 10.4275 33 11.0479 33C11.2009 33 12.7999 31.9024 14.601 30.561C16.4023 29.2195 18.2971 27.8195 18.8118 27.4498L19.7477 26.7776H24.852C29.6512 26.7776 30.0003 26.7563 30.6915 26.4219C31.6321 25.9666 32.5846 24.9127 32.8194 24.0675C32.9393 23.6359 33.0019 19.9025 33 13.2956C32.9968 1.84448 33.0664 2.44477 31.5865 1.08655C31.0194 0.566117 30.5634 0.319467 29.9093 0.179117C28.8948 -0.0383227 4.07145 -0.0682248 3.17927 0.14714ZM17.4525 5.48996C17.7082 5.69703 17.8808 6.07227 17.9471 6.5654C18.0422 7.27338 18.099 7.34148 18.8148 7.60558C19.925 8.0154 20.383 8.4826 20.383 9.20527C20.383 9.66607 20.2578 9.91341 19.851 10.2555C19.2766 10.7386 18.7819 10.8093 18.0168 10.5172C17.2268 10.2157 15.4017 10.2505 15.0789 10.5732C14.6003 11.0514 14.9485 11.3411 16.6964 11.9186C19.8945 12.9752 20.7762 13.6339 21.0997 15.2092C21.4648 16.9866 20.6342 18.5054 18.8704 19.2851C18.0203 19.661 17.9624 19.7258 17.9624 20.3016C17.9624 20.724 17.8296 21.0493 17.5379 21.3407C16.6181 22.2604 15.023 21.6161 15.023 20.3249C15.023 19.5991 14.8569 19.455 13.6004 19.0911C11.9668 18.6181 11.4016 17.3845 12.35 16.3619C12.8815 15.7891 13.3936 15.7621 14.6537 16.2409C16.2328 16.8409 18.238 16.6542 18.1024 15.92C18.0654 15.7191 17.4672 15.4324 16.1711 14.994C12.873 13.8787 11.9193 12.9837 11.9136 10.9985C11.9091 9.36255 12.632 8.28728 14.2038 7.5921C14.9426 7.26542 15.023 7.17382 15.023 6.65822C15.023 5.42825 16.4993 4.71838 17.4525 5.48996Z" fill="#1338A2"/>
</svg>
