<svg width="26" height="35" viewBox="0 0 26 35" fill="none" xmlns="http://www.w3.org/2000/svg">
<path d="M17.3333 0V8.75H26L17.3333 0ZM19.5 17.5H6.5V21.875H19.5V17.5ZM15.1667 8.75V0H3.25C1.45505 0 0 1.46904 0 3.28125V31.7188C0 33.5303 1.45505 35 3.25 35H22.75C24.5449 35 26 33.531 26 31.7188V10.9375H17.3943C16.1349 10.9375 15.1667 9.95996 15.1667 8.75ZM4.33333 4.92188C4.33333 4.62314 4.57911 4.375 4.875 4.375H10.2917C10.5896 4.375 10.8333 4.62314 10.8333 4.92188V6.01562C10.8333 6.31504 10.5896 6.5625 10.2917 6.5625H4.875C4.57911 6.5625 4.33333 6.31504 4.33333 6.01562V4.92188ZM4.33333 9.29688C4.33333 8.99609 4.57911 8.75 4.875 8.75H10.2917C10.5896 8.75 10.8333 8.99609 10.8333 9.29688V10.3906C10.8333 10.6914 10.5896 10.9375 10.2917 10.9375H4.875C4.57911 10.9375 4.33333 10.6914 4.33333 10.3906V9.29688ZM21.6667 30.0781C21.6667 30.3772 21.4212 30.625 21.125 30.625H15.7083C15.4104 30.625 15.1667 30.3789 15.1667 30.0781V28.9844C15.1667 28.6853 15.4121 28.4375 15.7083 28.4375H21.125C21.4212 28.4375 21.6667 28.6853 21.6667 28.9844V30.0781ZM21.6667 16.4062V22.9688C21.6667 23.5754 21.1842 24.0625 20.5833 24.0625H5.41667C4.81609 24.0625 4.33333 23.5771 4.33333 22.9688V16.4062C4.33333 15.7979 4.81609 15.3125 5.41667 15.3125H20.5833C21.1859 15.3125 21.6667 15.7979 21.6667 16.4062Z" fill="#1338A2"/>
</svg>
