<svg width="41" height="28" viewBox="0 0 41 28" fill="none" xmlns="http://www.w3.org/2000/svg">
<path fill-rule="evenodd" clip-rule="evenodd" d="M3.14595 0.12716C2.25736 0.339602 1.68407 0.666668 1.05767 1.31878C0.00386551 2.41595 0 2.45377 0 11.9098C0 17.597 0.0623543 20.7172 0.18555 21.2068C0.412446 22.108 1.31112 23.1924 2.24492 23.6917C2.93872 24.0628 2.97401 24.0642 11.8463 24.0642H20.7515L21.0277 23.0411C21.1796 22.4784 21.3976 21.8355 21.5119 21.6125C21.7917 21.0671 33.3512 9.45543 34.2024 8.86466C34.5722 8.60802 35.1584 8.30566 35.505 8.19272L36.1352 7.98733L36.1315 5.52123C36.1273 2.74823 35.9616 2.14502 34.9372 1.17307C33.6601 -0.0387262 34.674 0.0330406 18.4038 0.00261978C10.1627 -0.0128427 3.50411 0.0416118 3.14595 0.12716ZM28.0615 8.55961C28.2941 8.97559 28.2941 9.06803 28.0615 9.484L27.803 9.9462L17.2542 9.98956C10.1738 10.0185 6.59779 9.97511 6.37795 9.85746C5.93946 9.62283 5.91593 8.44499 6.34468 8.19423C6.53863 8.08078 10.2402 8.03506 17.2209 8.05977L27.803 8.09742L28.0615 8.55961ZM36.1593 10.1512C35.9413 10.1926 35.2004 10.7684 34.5125 11.4309L33.2621 12.6353L35.4536 14.8164L37.645 16.9974L38.6676 15.9929C39.9024 14.7799 40.1689 14.3088 40.1689 13.3396C40.1689 12.5436 39.6296 11.6983 38.5536 10.8082C37.7087 10.1096 37.1652 9.96032 36.1593 10.1512ZM22.0109 14.6102C22.2435 15.0261 22.2435 15.1186 22.0109 15.5346L21.7524 15.9968L14.2297 16.0404C9.23516 16.0695 6.59695 16.0252 6.37896 15.9085C5.93963 15.6734 5.91542 14.4959 6.34468 14.2444C6.53645 14.1322 9.26961 14.0855 14.1956 14.1102L21.7524 14.148L22.0109 14.6102ZM27.4552 18.4758L23.2378 22.7196L22.6978 24.9754C21.8926 28.3382 21.9773 28.4113 25.628 27.5074L27.642 27.0088L31.8881 22.765L36.1341 18.5213L33.9942 16.3768C32.8172 15.1971 31.8135 14.232 31.7634 14.232C31.7135 14.232 29.7748 16.1418 27.4552 18.4758Z" fill="#1338A2"/>
</svg>
