<svg width="23" height="30" viewBox="0 0 23 30" fill="none" xmlns="http://www.w3.org/2000/svg">
<path d="M14.75 0V7.375H22.125L14.75 0ZM12.9062 7.375V0H2.76562C1.23819 0 0 1.23819 0 2.76562V26.7344C0 28.2612 1.23819 29.5 2.76562 29.5H19.3594C20.8868 29.5 22.125 28.2618 22.125 26.7344V9.21875H14.8019C13.7302 9.21875 12.9062 8.39482 12.9062 7.375ZM3.6875 4.14844C3.6875 3.89665 3.89665 3.6875 4.14844 3.6875H8.75781C9.01133 3.6875 9.21875 3.89665 9.21875 4.14844V5.07031C9.21875 5.32268 9.01133 5.53125 8.75781 5.53125H4.14844C3.89665 5.53125 3.6875 5.32268 3.6875 5.07031V4.14844ZM3.6875 7.83594C3.6875 7.58242 3.89665 7.375 4.14844 7.375H8.75781C9.01133 7.375 9.21875 7.58242 9.21875 7.83594V8.75781C9.21875 9.01133 9.01133 9.21875 8.75781 9.21875H4.14844C3.89665 9.21875 3.6875 9.01133 3.6875 8.75781V7.83594ZM17.5156 22.125C18.027 22.125 18.4375 22.5355 18.4375 23.0469C18.4375 23.5582 18.0284 23.9688 17.5156 23.9688H14.7932C13.8494 23.9688 12.9927 23.443 12.5675 22.5929C12.4018 22.2544 12.1065 22.2183 11.9844 22.2183C11.8622 22.2183 11.5667 22.2544 11.4082 22.5712L10.9617 23.4574C10.809 23.7729 10.4345 23.9688 10.1406 23.9688H10.0772C9.70273 23.9399 9.38584 23.6951 9.27061 23.335L8.29688 20.4311L7.68613 22.269C7.34619 23.2831 6.39551 23.9688 5.32268 23.9688H4.60938C4.09831 23.9688 3.6875 23.5597 3.6875 23.0469C3.6875 22.5341 4.09831 22.125 4.60938 22.125H5.32268C5.60356 22.125 5.84843 21.9449 5.93457 21.6857L6.98608 18.538C7.17334 17.9708 7.69766 17.5905 8.29688 17.5905C8.89609 17.5905 9.42041 17.9722 9.60767 18.5412L10.4074 20.9398C11.5453 20.0035 13.5262 20.378 14.2101 21.7534C14.3254 21.9838 14.5558 22.1279 14.7932 22.1279H17.5156V22.125Z" fill="#1338A2"/>
</svg>
