<svg width="21" height="28" viewBox="0 0 21 28" fill="none" xmlns="http://www.w3.org/2000/svg">
<path d="M13.9303 0V7H20.8955L13.9303 0ZM12.1891 7V0H2.61194C1.16939 0 0 1.17523 0 2.625V25.375C0 26.8242 1.16939 28 2.61194 28H18.2836C19.7261 28 20.8955 26.8248 20.8955 25.375V8.75H13.9793C12.9672 8.75 12.1891 7.96797 12.1891 7ZM14.801 22.75H6.09453C5.61567 22.75 5.22388 22.3563 5.22388 21.875C5.22388 21.3937 5.61567 21 6.09453 21H14.801C15.2818 21 15.6716 21.3917 15.6716 21.875C15.6716 22.3563 15.2799 22.75 14.801 22.75ZM14.801 19.25H6.09453C5.61567 19.25 5.22388 18.8563 5.22388 18.375C5.22388 17.8937 5.61567 17.5 6.09453 17.5H14.801C15.2818 17.5 15.6716 17.8917 15.6716 18.375C15.6716 18.8563 15.2799 19.25 14.801 19.25ZM15.6716 14.875C15.6716 15.3563 15.2799 15.75 14.801 15.75H6.09453C5.61567 15.75 5.22388 15.3563 5.22388 14.875C5.22388 14.3937 5.61567 14 6.09453 14H14.801C15.2799 14 15.6716 14.3937 15.6716 14.875Z" fill="#1338A2"/>
</svg>
