<svg width="26" height="34" viewBox="0 0 26 34" fill="none" xmlns="http://www.w3.org/2000/svg">
<path d="M26 8.5H17.3333V0L26 8.5ZM17.3333 10.625H26V30.8125C26 32.5729 24.5449 34 22.75 34H3.25C1.45505 34 0 32.5723 0 30.8125V3.1875C0 1.42707 1.45505 0 3.25 0H15.1667L15.1669 8.5C15.1667 9.67539 16.1349 10.625 17.3333 10.625ZM4.33333 5.84375C4.33333 6.13461 4.57911 6.375 4.875 6.375H10.2917C10.5896 6.375 10.8333 6.13461 10.8333 5.84375V4.78125C10.8333 4.49105 10.5896 4.25 10.2917 4.25H4.875C4.57911 4.25 4.33333 4.49105 4.33333 4.78125V5.84375ZM4.875 10.625H10.2917C10.5896 10.625 10.8333 10.3859 10.8333 10.0938V9.03125C10.8333 8.73906 10.5896 8.5 10.2917 8.5H4.875C4.57911 8.5 4.33333 8.73906 4.33333 9.03125V10.0938C4.33333 10.3859 4.57911 10.625 4.875 10.625ZM13.3724 21.0375L12.9391 20.9313C11.3953 20.4664 11.4292 20.1941 11.4833 19.9551C11.5764 19.4363 12.6066 19.3097 13.5329 19.4487C13.9116 19.5048 14.3271 19.6355 14.7239 19.7704C15.4273 20.0091 16.2019 19.6417 16.447 18.9509C16.6925 18.2577 16.319 17.5006 15.6122 17.2596C15.1234 17.0946 14.7245 16.9888 14.3555 16.9094V16.4688C14.3555 15.7363 13.7493 15.1406 13.0014 15.1406C12.2534 15.1406 11.6472 15.7362 11.6472 16.4688V16.8667C10.1292 17.1859 9.05938 18.1156 8.81563 19.5035C8.31418 22.3484 11.0629 23.1393 12.2363 23.4773L12.6298 23.5894C14.6123 24.1455 14.5798 24.3324 14.5202 24.6705C14.4271 25.1892 13.3969 25.3179 12.4679 25.1768C11.9982 25.1083 11.3975 24.8966 10.866 24.7099L10.5634 24.602C9.85854 24.3633 9.08531 24.7223 8.83546 25.4135C8.58684 26.1048 8.95605 26.8638 9.66151 27.1088L9.95035 27.2084C10.4756 27.3936 11.0594 27.5796 11.6471 27.7073V28.1562C11.6471 28.8887 12.2533 29.4844 13.0013 29.4844C13.7493 29.4844 14.3555 28.8888 14.3555 28.1562V27.7409C15.8694 27.4227 16.9426 26.5104 17.1877 25.1225C17.6922 22.2461 14.8823 21.4559 13.3724 21.0375Z" fill="#1338A2"/>
</svg>
