<svg width="39" height="35" viewBox="0 0 39 35" fill="none" xmlns="http://www.w3.org/2000/svg">
<g clip-path="url(#clip0_180_72)">
<path d="M21.0904 2.17337V2.86039C21.504 2.93891 21.9046 3.03706 22.2665 3.1352C23.0937 3.35767 23.5848 4.22135 23.3651 5.05887C23.1454 5.89639 22.2924 6.39366 21.4652 6.1712C20.7608 5.98145 20.1017 5.85058 19.5136 5.84404C19.0418 5.8375 18.5636 5.95527 18.2599 6.13194C18.1242 6.217 18.0596 6.28897 18.0337 6.32823C18.0143 6.36094 17.9885 6.40675 17.9885 6.51144C17.9885 6.53107 17.9885 6.54415 17.9885 6.55069C18.0014 6.56378 18.0466 6.62921 18.2017 6.72081C18.5765 6.94982 19.1323 7.12649 19.9724 7.38167L20.0306 7.4013C20.7479 7.61722 21.7043 7.91166 22.4798 8.40239C23.3651 8.96509 24.1664 9.90076 24.1858 11.3402C24.2052 12.8124 23.4491 13.8855 22.4604 14.5136C22.0274 14.7819 21.5621 14.9716 21.0839 15.0894V15.783C21.0839 16.6532 20.3925 17.3533 19.533 17.3533C18.6735 17.3533 17.982 16.6532 17.982 15.783V15.0371C17.3681 14.8866 16.8059 14.6903 16.3277 14.5267C16.192 14.4809 16.0627 14.4351 15.9399 14.3959C15.1257 14.121 14.6862 13.2312 14.9577 12.4068C15.2291 11.5823 16.1079 11.1374 16.9222 11.4122C17.0902 11.4711 17.2453 11.5234 17.3939 11.5758C18.2728 11.8768 18.9061 12.0927 19.5847 12.1189C20.1017 12.1385 20.5605 12.0142 20.8254 11.8506C20.9482 11.7721 21.0064 11.7066 21.0322 11.6608C21.0581 11.6216 21.0904 11.5431 21.0839 11.3926V11.3795C21.0839 11.3141 21.0839 11.2421 20.8254 11.0785C20.4571 10.843 19.9013 10.6598 19.0741 10.4046L18.9514 10.3653C18.2534 10.1559 17.3358 9.87458 16.5991 9.42311C15.7267 8.89312 14.8866 7.98363 14.8801 6.53761C14.8736 5.03924 15.7137 4.01198 16.6702 3.43618C17.0838 3.18755 17.5297 3.01743 17.9755 2.89965V2.17337C17.9755 1.30314 18.667 0.603027 19.5265 0.603027C20.386 0.603027 21.0775 1.30314 21.0775 2.17337H21.0904ZM37.6468 22.6074C38.4934 23.7721 38.2478 25.4079 37.0975 26.265L28.9162 32.3697C27.4041 33.4951 25.5817 34.1036 23.7012 34.1036H13.3356H2.99592C1.85209 34.1036 0.927979 33.168 0.927979 32.0098V27.8223C0.927979 26.6641 1.85209 25.7285 2.99592 25.7285H5.37405L8.27562 23.373C9.74257 22.1821 11.5649 21.5409 13.4455 21.5409H18.5055H19.5394H23.6753C24.8191 21.5409 25.7432 22.4766 25.7432 23.6347C25.7432 24.7928 24.8191 25.7285 23.6753 25.7285H19.5394H18.5055C17.9368 25.7285 17.4715 26.1996 17.4715 26.7754C17.4715 27.3512 17.9368 27.8223 18.5055 27.8223H26.299L34.0344 22.0513C35.1847 21.1941 36.8003 21.4428 37.6468 22.6074ZM13.439 25.7285H13.3808C13.4002 25.7285 13.4196 25.7285 13.439 25.7285Z" fill="#1338A2"/>
</g>
<defs>
<clipPath id="clip0_180_72">
<rect width="37.2229" height="33.5006" fill="white" transform="translate(0.927979 0.603027)"/>
</clipPath>
</defs>
</svg>
