<svg width="33" height="31" viewBox="0 0 33 31" fill="none" xmlns="http://www.w3.org/2000/svg">
<path d="M29.9188 0.571623C30.1063 0.75623 30.25 0.96875 30.35 1.1958C30.4438 1.42285 30.4438 1.67109 30.5 1.93145V1.9375V7.75C30.5 8.82168 29.6063 9.6875 28.5 9.6875C27.3937 9.6875 26.5 8.82168 26.5 7.75V6.61777L19.9125 12.9934C19.175 13.7139 17.9938 13.7563 17.2 13.0963L11.4438 8.36152L5.80125 13.0963C4.96313 13.7926 3.7 13.6957 2.98125 12.8844C2.2625 12.073 2.36 10.85 3.19812 10.1537L10.2 4.34121C10.95 3.71939 12.05 3.71939 12.8 4.34121L18.3937 8.98516L23.6688 3.875H22.5C21.3937 3.875 20.5 3.00736 20.5 1.9375C20.5 0.867637 21.3937 0 22.5 0H28.4438C29.05 0 29.55 0.215184 29.9125 0.563389L29.9188 0.571623ZM0.5 18.4062C0.5 16.8018 1.84312 15.5 3.5 15.5H29.5C31.1562 15.5 32.5 16.8018 32.5 18.4062V28.0938C32.5 29.6982 31.1562 31 29.5 31H3.5C1.84312 31 0.5 29.6982 0.5 28.0938V18.4062ZM3.5 28.0938H6.5C6.5 26.4893 5.15688 25.1875 3.5 25.1875V28.0938ZM3.5 18.4062V21.3125C5.15688 21.3125 6.5 20.0107 6.5 18.4062H3.5ZM29.5 25.1875C27.8438 25.1875 26.5 26.4893 26.5 28.0938H29.5V25.1875ZM26.5 18.4062C26.5 20.0107 27.8438 21.3125 29.5 21.3125V18.4062H26.5ZM16.5 19.375C14.2937 19.375 12.5 21.1127 12.5 23.25C12.5 25.3873 14.2937 27.125 16.5 27.125C18.7062 27.125 20.5 25.3873 20.5 23.25C20.5 21.1127 18.7062 19.375 16.5 19.375Z" fill="#1338A2"/>
</svg>
