<svg width="28" height="28" viewBox="0 0 28 28" fill="none" xmlns="http://www.w3.org/2000/svg">
<path d="M15.75 0C16.718 0 17.5 0.783672 17.5 1.75V5.25C17.5 6.21797 16.718 7 15.75 7H11.375V8.75H23.193C24.9703 8.75 26.4414 10.0133 26.6984 11.725L27.9398 19.9117C27.9781 20.1688 28 20.4312 28 20.6937V24.5C28 26.4305 26.4305 28 24.5 28H3.5C1.5668 28 0 26.4305 0 24.5V20.6937C0 20.4312 0.0198078 20.1688 0.0592266 19.9117L1.29938 11.725C1.55859 10.0133 3.02914 8.75 4.75945 8.75H7.82578V7H3.45078C2.53367 7 1.70078 6.21797 1.70078 5.25V1.75C1.70078 0.783672 2.53367 0 3.45078 0H15.75ZM5.25 2.625C4.76656 2.625 4.375 3.01656 4.375 3.5C4.375 3.98344 4.76656 4.375 5.25 4.375H14C14.4813 4.375 14.875 3.98344 14.875 3.5C14.875 3.01656 14.4813 2.625 14 2.625H5.25ZM4.375 24.5H23.625C24.1063 24.5 24.5 24.1063 24.5 23.625C24.5 23.1437 24.1063 22.75 23.625 22.75H4.375C3.89156 22.75 3.5 23.1437 3.5 23.625C3.5 24.1063 3.89156 24.5 4.375 24.5ZM6.125 11.8125C5.40039 11.8125 4.8125 12.3977 4.8125 13.125C4.8125 13.8523 5.40039 14.4375 6.125 14.4375C6.85234 14.4375 7.4375 13.8523 7.4375 13.125C7.4375 12.3977 6.85234 11.8125 6.125 11.8125ZM11.375 14.4375C12.1023 14.4375 12.6875 13.8523 12.6875 13.125C12.6875 12.3977 12.1023 11.8125 11.375 11.8125C10.6477 11.8125 10.0625 12.3977 10.0625 13.125C10.0625 13.8523 10.6477 14.4375 11.375 14.4375ZM8.75 16.1875C8.02266 16.1875 7.4375 16.7727 7.4375 17.5C7.4375 18.2273 8.02266 18.8125 8.75 18.8125C9.47734 18.8125 10.0625 18.2273 10.0625 17.5C10.0625 16.7727 9.47734 16.1875 8.75 16.1875ZM16.625 14.4375C17.3523 14.4375 17.9375 13.8523 17.9375 13.125C17.9375 12.3977 17.3523 11.8125 16.625 11.8125C15.8977 11.8125 15.3125 12.3977 15.3125 13.125C15.3125 13.8523 15.8977 14.4375 16.625 14.4375ZM14 16.1875C13.2727 16.1875 12.6875 16.7727 12.6875 17.5C12.6875 18.2273 13.2727 18.8125 14 18.8125C14.7273 18.8125 15.3125 18.2273 15.3125 17.5C15.3125 16.7727 14.7273 16.1875 14 16.1875ZM21.875 14.4375C22.6023 14.4375 23.1875 13.8523 23.1875 13.125C23.1875 12.3977 22.6023 11.8125 21.875 11.8125C21.1477 11.8125 20.5625 12.3977 20.5625 13.125C20.5625 13.8523 21.1477 14.4375 21.875 14.4375ZM19.25 16.1875C18.5227 16.1875 17.9375 16.7727 17.9375 17.5C17.9375 18.2273 18.5227 18.8125 19.25 18.8125C19.9773 18.8125 20.5625 18.2273 20.5625 17.5C20.5625 16.7727 19.9773 16.1875 19.25 16.1875Z" fill="#1338A2"/>
</svg>
