<svg width="28" height="28" viewBox="0 0 28 28" fill="none" xmlns="http://www.w3.org/2000/svg">
<path d="M19.25 14C19.25 15.2141 19.1844 16.3844 19.0695 17.5H8.93047C8.81563 16.3844 8.70078 15.2141 8.70078 14C8.70078 12.7859 8.81563 11.6156 8.93047 10.5H19.0695C19.1844 11.6156 19.25 12.7859 19.25 14ZM27.557 10.5C27.8469 11.6211 28 12.7914 28 14C28 15.2086 27.8469 16.3789 27.557 17.5H20.825C20.9398 16.3734 21 15.1539 21 14C21 12.7969 20.9398 11.6266 20.825 10.5H27.557ZM26.9828 8.75H20.6008C20.0539 5.25766 18.9711 2.33078 17.5766 0.461672C21.8641 1.59086 25.3422 4.69984 26.9828 8.75ZM18.8289 8.75H9.17109C9.50469 6.75937 10.0187 4.99734 10.6477 3.57383C11.2219 2.28266 11.8617 1.34586 12.4797 0.755234C13.0922 0.173797 13.6008 0 14 0C14.3992 0 14.9078 0.173797 15.5203 0.755234C16.1383 1.34586 16.7781 2.28266 17.3523 3.57383C17.9812 4.99734 18.4953 6.75937 18.8289 8.75ZM1.01773 8.75C2.65727 4.69984 6.13594 1.59086 10.4234 0.461672C9.02891 2.33078 7.94609 5.25766 7.39922 8.75H1.01773ZM7.175 10.5C7.06016 11.6266 6.95078 12.7969 6.95078 14C6.95078 15.1539 7.06016 16.3734 7.175 17.5H0.441055C0.153125 16.3789 0 15.2086 0 14C0 12.7914 0.153125 11.6211 0.441055 10.5H7.175ZM10.6477 24.4234C10.0187 23.0016 9.50469 21.2406 9.17109 19.25H18.8289C18.4953 21.2406 17.9812 23.0016 17.3523 24.4234C16.7781 25.7195 16.1383 26.6547 15.5203 27.2453C14.9078 27.825 14.3992 28 13.9508 28C13.6008 28 13.0922 27.825 12.4797 27.2453C11.8617 26.6547 11.2219 25.7195 10.6477 24.4234ZM10.4234 27.5406C6.13594 26.4086 2.65727 23.3023 1.01773 19.25H7.39922C7.94609 22.7445 9.02891 25.6703 10.4234 27.5406ZM17.5766 27.5406C18.9711 25.6703 20.0539 22.7445 20.6008 19.25H26.9828C25.3422 23.3023 21.8641 26.4086 17.5766 27.5406Z" fill="#1338A2"/>
</svg>
