<svg width="33" height="34" viewBox="0 0 33 34" fill="none" xmlns="http://www.w3.org/2000/svg">
<path d="M11.8113 1.72553C11.8113 0.787477 11.0508 0.0270386 10.1128 0.0270386H1.69849C0.760438 0.0270386 0 0.787478 0 1.72553V10.1398C0 11.0779 0.760439 11.8383 1.69849 11.8383H10.1128C11.0508 11.8383 11.8113 11.0779 11.8113 10.1398V1.72553ZM9.60927 7.93782C9.60927 8.87587 8.84883 9.63631 7.91078 9.63631H3.90049C2.96244 9.63631 2.202 8.87587 2.202 7.93782V3.92753C2.202 2.98948 2.96244 2.22904 3.90049 2.22904H7.91078C8.84883 2.22904 9.60927 2.98948 9.60927 3.92753V7.93782Z" fill="#1338A2"/>
<path d="M6.74518 3.36655H5.06494C4.12689 3.36655 3.36646 4.12699 3.36646 5.06504V6.74527C3.36646 7.68332 4.1269 8.44376 5.06494 8.44376H6.74518C7.68323 8.44376 8.44367 7.68332 8.44367 6.74527V5.06503C8.44367 4.12699 7.68323 3.36655 6.74518 3.36655Z" fill="#1338A2"/>
<path d="M0 31.3259C0 32.2639 0.760439 33.0243 1.69849 33.0243H10.1128C11.0508 33.0243 11.8113 32.2639 11.8113 31.3259V22.9116C11.8113 21.9735 11.0508 21.2131 10.1128 21.2131H1.69849C0.760438 21.2131 0 21.9735 0 22.9116V31.3259ZM2.202 25.1155C2.202 24.1775 2.96244 23.417 3.90049 23.417H7.91078C8.84883 23.417 9.60927 24.1775 9.60927 25.1155V29.1239C9.60927 30.0619 8.84883 30.8223 7.91078 30.8223H3.90049C2.96244 30.8223 2.202 30.0619 2.202 29.1239V25.1155Z" fill="#1338A2"/>
<path d="M6.74518 24.5519H5.06494C4.12689 24.5519 3.36646 25.3123 3.36646 26.2504V27.9306C3.36646 28.8687 4.1269 29.6291 5.06494 29.6291H6.74518C7.68323 29.6291 8.44367 28.8687 8.44367 27.9306V26.2504C8.44367 25.3123 7.68323 24.5519 6.74518 24.5519Z" fill="#1338A2"/>
<path d="M32.9983 1.69821C32.9982 0.760268 32.2378 0 31.2998 0H22.8853C21.9472 0 21.1868 0.760439 21.1868 1.69849V10.1128C21.1868 11.0508 21.9472 11.8113 22.8853 11.8113H31.3012C32.2394 11.8113 32.9999 11.0507 32.9997 10.1125L32.9983 1.69821ZM30.7941 7.90302C30.7941 8.84107 30.0337 9.60151 29.0956 9.60151H25.0873C24.1492 9.60151 23.3888 8.84107 23.3888 7.90302V3.90049C23.3888 2.96244 24.1492 2.202 25.0873 2.202H29.0956C30.0337 2.202 30.7941 2.96244 30.7941 3.90049V7.90302Z" fill="#1338A2"/>
<path d="M27.9321 3.33881H26.2518C25.3138 3.33881 24.5533 4.09925 24.5533 5.0373V6.71753C24.5533 7.65558 25.3138 8.41602 26.2518 8.41602H27.9321C28.8701 8.41602 29.6306 7.65558 29.6306 6.71753V5.03729C29.6306 4.09925 28.8701 3.33881 27.9321 3.33881Z" fill="#1338A2"/>
<path d="M23.4533 21.2131H15.0624C14.4544 21.2131 13.9614 21.706 13.9614 22.3141C13.9614 22.9221 14.4544 23.4151 15.0624 23.4151H23.4533C24.0614 23.4151 24.5543 22.9221 24.5543 22.3141C24.5543 21.706 24.0614 21.2131 23.4533 21.2131Z" fill="#1338A2"/>
<path d="M17.6922 2.05056C17.6922 2.57559 17.2666 3.0012 16.7416 3.0012H15.0634C14.4548 3.0012 13.9614 3.49457 13.9614 4.10317V4.10317C13.9614 4.71178 14.4548 5.20515 15.0634 5.20515H15.9937C16.9318 5.20515 17.6922 5.96558 17.6922 6.90363V13.7309C17.6922 14.3389 18.1852 14.8319 18.7932 14.8319V14.8319C19.4013 14.8319 19.8942 14.3389 19.8942 13.7309V2.20091C19.8942 1.59285 19.4013 1.09991 18.7932 1.09991H18.6429C18.1178 1.09991 17.6922 1.52553 17.6922 2.05056V2.05056Z" fill="#1338A2"/>
<path d="M14.787 16.1539C14.787 15.7151 15.1427 15.3594 15.5814 15.3594V15.3594C16.0202 15.3594 16.3759 15.0037 16.3759 14.5649V14.2584C16.3759 13.6503 15.883 13.1574 15.2749 13.1574H10.0638C9.45576 13.1574 8.96283 13.6503 8.96283 14.2584V14.2584C8.96283 14.8665 9.45576 15.3594 10.0638 15.3594H11.4946C12.0968 15.3594 12.585 15.8476 12.585 16.4497V16.4497C12.585 17.0519 12.0968 17.5401 11.4946 17.5401H9.54582C8.93776 17.5401 8.44482 18.033 8.44482 18.6411V18.6411C8.44482 19.2491 8.93776 19.7421 9.54582 19.7421H13.0885C14.0265 19.7421 14.787 18.9816 14.787 18.0436V16.1539Z" fill="#1338A2"/>
<path d="M15.4704 10.5378V7.82558C15.4704 7.21751 14.9775 6.72458 14.3694 6.72458C13.7614 6.72458 13.2684 7.21751 13.2684 7.82558V10.5378C13.2684 11.1459 13.7614 11.6388 14.3694 11.6388C14.9775 11.6388 15.4704 11.1459 15.4704 10.5378Z" fill="#1338A2"/>
<path d="M22.8844 13.1574C21.9464 13.1574 21.1859 13.9178 21.1859 14.8559V15.8416C21.1859 16.7796 20.4255 17.5401 19.4874 17.5401H18.7463C18.1382 17.5401 17.6453 18.033 17.6453 18.6411V18.6411C17.6453 19.2491 18.1382 19.7421 18.7463 19.7421H21.6914C22.6294 19.7421 23.3899 18.9816 23.3899 18.0436V17.0579C23.3899 16.1199 24.1503 15.3594 25.0884 15.3594H27.1866C27.4609 15.3594 27.6833 15.5818 27.6833 15.8561V15.8561C27.6833 16.1304 27.4609 16.3527 27.1866 16.3527H26.9237C26.5043 16.3527 26.1642 16.6928 26.1642 17.1123V17.4537C26.1642 18.0618 26.6571 18.5547 27.2652 18.5547H30.7962C31.4042 18.5547 31.8972 18.0618 31.8972 17.4537V17.3587C31.8972 16.8031 31.4468 16.3527 30.8912 16.3527V16.3527C30.3357 16.3527 29.8853 15.9024 29.8853 15.3468V14.7551C29.8853 13.8727 29.17 13.1574 28.2876 13.1574H22.8844Z" fill="#1338A2"/>
<path d="M29.8842 21.094C29.8842 20.4859 29.3913 19.993 28.7832 19.993V19.993C28.1752 19.993 27.6822 20.4859 27.6822 21.094V23.716C27.6822 24.3085 27.2019 24.7889 26.6094 24.7889V24.7889C26.0168 24.7889 25.5365 25.2692 25.5365 25.8618V25.8899C25.5365 26.498 26.0294 26.9909 26.6375 26.9909H28.1857C29.1238 26.9909 29.8842 26.2304 29.8842 25.2924V21.094Z" fill="#1338A2"/>
<path d="M19.0752 28.5972C19.0752 27.71 19.7944 26.9908 20.6816 26.9908H21.1869C21.795 26.9908 22.2879 26.4979 22.2879 25.8898V25.8898C22.2879 25.2818 21.795 24.7888 21.1869 24.7888H18.5697C17.6317 24.7888 16.8712 25.5493 16.8712 26.4873V30.8225C16.8712 31.4311 17.3646 31.9245 17.9732 31.9245V31.9245C18.5818 31.9245 19.0752 31.4311 19.0752 30.8225V28.5972Z" fill="#1338A2"/>
<path d="M15.0606 30.8235V26.9918C15.0606 26.3838 14.5677 25.8908 13.9596 25.8908C13.3516 25.8908 12.8586 26.3838 12.8586 26.9918V30.8235C12.8586 31.4316 13.3516 31.9245 13.9596 31.9245C14.5677 31.9245 15.0606 31.4316 15.0606 30.8235Z" fill="#1338A2"/>
<path d="M24.552 31.9241C25.16 31.9241 25.653 31.4312 25.653 30.8231V29.5038C25.653 28.5658 24.8925 27.8053 23.9545 27.8053H21.9406C21.3325 27.8053 20.8396 28.2983 20.8396 28.9063V28.9063C20.8396 29.5144 21.3325 30.0073 21.9406 30.0073H22.4926C23.0219 30.0073 23.451 30.4364 23.451 30.9657V30.9657C23.451 31.495 23.8801 31.9241 24.4094 31.9241H24.552Z" fill="#1338A2"/>
<path d="M32.9992 29.0397C32.9992 28.4311 32.5059 27.9377 31.8973 27.9377V27.9377C31.2887 27.9377 30.7953 28.4311 30.7953 29.0397V29.3801C30.7953 30.1768 30.1495 30.8226 29.3528 30.8226H28.2635C27.6549 30.8226 27.1615 31.316 27.1615 31.9246V31.9246C27.1615 32.5332 27.6549 33.0265 28.2635 33.0265H31.3007C32.2388 33.0265 32.9992 32.2661 32.9992 31.328V29.0397Z" fill="#1338A2"/>
<path d="M0 15.7387C0 16.3468 0.492935 16.8397 1.101 16.8397H1.46186C1.87063 16.8397 2.202 16.5083 2.202 16.0996V16.0996C2.202 15.6908 2.53338 15.3594 2.94215 15.3594H3.5038C4.22277 15.3594 4.8056 15.9422 4.8056 16.6612V18.3171C4.8056 18.9251 5.29854 19.4181 5.90661 19.4181V19.4181C6.51467 19.4181 7.00761 18.9251 7.00761 18.3171V14.8559C7.00761 13.9179 6.24717 13.1574 5.30912 13.1574H1.69849C0.760438 13.1574 0 13.9178 0 14.8559V15.7387Z" fill="#1338A2"/>
</svg>
