<svg width="28" height="28" viewBox="0 0 28 28" fill="none" xmlns="http://www.w3.org/2000/svg">
<path fill-rule="evenodd" clip-rule="evenodd" d="M13.2867 0.155538C12.7108 0.321087 11.5064 1.06686 10.3468 1.97584L9.53558 2.61193H7.4733C3.37121 2.61193 2.63521 3.15597 2.62865 6.19331L2.62544 7.65976L1.611 8.43091C0.452742 9.31145 -0.0472577 10.1288 0.0271296 11.0196C0.0708869 11.5426 0.177509 11.6439 2.47958 13.3502C3.80324 14.3314 4.93553 15.139 4.99562 15.1449C5.05571 15.1509 5.10501 12.9241 5.10501 10.1965V5.23736H13.9294H22.7538V10.2086C22.7538 13.0935 22.8089 15.1596 22.885 15.1313C22.9572 15.1046 24.1041 14.2951 25.4338 13.3325L27.8512 11.5822L27.855 10.9235C27.8602 10.0022 27.4841 9.39736 26.3149 8.4471L25.3063 7.62738L25.2334 5.94652C25.1657 4.38599 25.1311 4.22744 24.7517 3.73036C24.0322 2.78768 23.7173 2.69929 20.8594 2.63716L18.3086 2.58173L17.4317 1.89591C16.2051 0.936459 15.1959 0.331443 14.5128 0.146349C14.1919 0.0592723 13.8966 -0.00636355 13.8565 0.000491752C13.8164 0.0072012 13.5599 0.0770669 13.2867 0.155538ZM13.273 7.13351C13.1126 7.29395 12.9803 7.60565 12.9791 7.82633C12.9761 8.37315 12.8519 8.52061 12.2229 8.72569C11.5789 8.93558 10.8923 9.67347 10.6457 10.421C10.4223 11.0981 10.5525 12.1329 10.9275 12.6595C11.2965 13.1777 12.3511 13.7368 13.7106 14.1351C15.3753 14.6227 15.7636 15.129 14.786 15.5374C14.1899 15.7865 13.5467 15.7219 12.2774 15.2852C11.3362 14.9614 10.8191 15.1141 10.5828 15.7858C10.3467 16.4573 10.7115 16.9248 11.7442 17.274C12.9329 17.6759 12.9813 17.7185 12.9813 18.3648C12.9813 18.9929 13.3611 19.3855 13.9685 19.3855C14.4771 19.3855 15.0233 18.7621 15.0233 18.1816C15.0233 17.7566 15.089 17.6701 15.5338 17.5092C16.7166 17.0816 17.357 16.1615 17.357 14.8902C17.357 13.5817 16.3731 12.708 14.1994 12.0864C13.2099 11.8034 12.5437 11.4567 12.5437 11.2245C12.5437 10.6673 13.9705 10.4381 15.1811 10.8008C16.2506 11.1211 17.0189 10.447 16.6827 9.48327C16.5862 9.20658 16.3419 9.02295 15.7882 8.81087C15.0837 8.54103 15.0264 8.48313 15.0249 8.03856C15.0217 7.07167 13.9094 6.49713 13.273 7.13351ZM0.00320877 19.8497C0.00612592 25.4114 0.027421 25.9223 0.277858 26.4741C0.569865 27.1169 1.09029 27.5546 1.88142 27.823C2.56724 28.0556 25.1948 28.0606 26.0356 27.8284C26.7592 27.6284 27.668 26.7093 27.7845 26.0595C27.8314 25.7983 27.8509 22.9507 27.8279 19.7315L27.7859 13.8787L21.9733 18.0807C18.7764 20.3918 15.8884 22.3944 15.5556 22.5308C14.766 22.8543 13.0958 22.8619 12.3506 22.5454C11.8194 22.3198 10.2075 21.1898 3.7923 16.5457C2.22797 15.4133 0.73483 14.3374 0.474037 14.1549L0 13.8231L0.00320877 19.8497Z" fill="#1338A2"/>
</svg>
