<svg width="36" height="28" viewBox="0 0 36 28" fill="none" xmlns="http://www.w3.org/2000/svg">
<path fill-rule="evenodd" clip-rule="evenodd" d="M3.12759 0.126532C2.24368 0.338234 1.67391 0.663556 1.0515 1.31153C-0.015527 2.42234 1.24473e-05 2.23703 1.24473e-05 13.8457C1.24473e-05 21.2785 0.0569899 24.5869 0.19417 25.1317C0.328175 25.6643 0.625594 26.1478 1.15493 26.6947C2.50819 28.0926 1.68845 28.0314 18.3932 27.9794L33.0001 27.9342L33.7 27.56C34.0852 27.3542 34.6304 26.9406 34.9119 26.6411C35.9656 25.5196 35.939 25.8726 35.8874 13.7184L35.8406 2.67731L35.3393 1.87278C34.9908 1.3132 34.5582 0.91018 33.9191 0.549267L33.0001 0.0302885L18.3798 0.00271864C10.1057 -0.0129877 3.48516 0.0408151 3.12759 0.126532ZM11.8572 20.5405C12.0882 20.9538 12.0882 21.0461 11.8572 21.4595L11.6003 21.919L9.13928 21.9652C7.63114 21.9935 6.55007 21.9427 6.34672 21.8341C5.90527 21.5978 5.8777 20.4294 6.30762 20.1755C6.4824 20.0725 7.60591 20.0187 9.10018 20.0419L11.6003 20.081L11.8572 20.5405ZM23.8874 20.5405C24.1187 20.9538 24.1187 21.0461 23.8874 21.4595L23.6304 21.919L19.1613 21.9634C16.27 21.9923 14.5762 21.946 14.3638 21.8322C13.9254 21.5976 13.9 20.4279 14.3279 20.1764C14.5132 20.0676 16.2706 20.0187 19.1254 20.0429L23.6304 20.081L23.8874 20.5405Z" fill="#1338A2"/>
</svg>
