<svg width="37" height="29" viewBox="0 0 37 29" fill="none" xmlns="http://www.w3.org/2000/svg">
<path d="M32.2083 0.951355C34.3686 0.951355 36.125 2.69841 36.125 4.85403V6.80537H0.875V4.85403C0.875 2.69841 2.62832 0.951355 4.79167 0.951355H32.2083ZM36.125 24.3674C36.125 26.52 34.3686 28.2701 32.2083 28.2701H4.79167C2.62832 28.2701 0.875 26.52 0.875 24.3674V12.6594H36.125V24.3674ZM7.72917 20.4648C7.19063 20.4648 6.75 20.9038 6.75 21.4404C6.75 21.977 7.19063 22.4161 7.72917 22.4161H11.6458C12.1844 22.4161 12.625 21.977 12.625 21.4404C12.625 20.9038 12.1844 20.4648 11.6458 20.4648H7.72917ZM15.5625 22.4161H23.3958C23.9344 22.4161 24.375 21.977 24.375 21.4404C24.375 20.9038 23.9344 20.4648 23.3958 20.4648H15.5625C15.024 20.4648 14.5833 20.9038 14.5833 21.4404C14.5833 21.977 15.024 22.4161 15.5625 22.4161Z" fill="#1338A2"/>
</svg>
