<svg width="31" height="29" viewBox="0 0 31 29" fill="none" xmlns="http://www.w3.org/2000/svg">
<path d="M30.456 21.9191L29.0935 27.6282C28.9021 28.4353 28.1682 29 27.3086 29C12.5246 28.9989 0.5 17.3768 0.5 3.08709C0.5 2.25678 1.08418 1.54654 1.91927 1.36247L7.82608 0.0456436C8.68632 -0.147038 9.56531 0.284542 9.92277 1.07192L12.6488 7.21712C12.9675 7.94095 12.7525 8.78428 12.1226 9.28156L8.9676 11.73C10.9588 15.6505 14.2568 18.8381 18.3142 20.7637L20.8972 17.7166C21.4064 17.1061 22.2855 16.8948 23.0344 17.2083L29.3924 19.8425C30.1571 20.2313 30.6552 21.0922 30.456 21.9191Z" fill="#1338A2"/>
</svg>
