<svg width="81" height="31" viewBox="0 0 81 31" fill="none" xmlns="http://www.w3.org/2000/svg">
<g filter="url(#filter0_d_496_190)">
<path d="M4.06433 2.40991C4.06433 1.45083 4.84182 0.67334 5.8009 0.67334H75.2635C76.2226 0.67334 77.0001 1.45083 77.0001 2.4099V21.5121C77.0001 22.4712 76.2226 23.2487 75.2635 23.2487H5.80089C4.84182 23.2487 4.06433 22.4712 4.06433 21.5121V2.40991Z" fill="#2B9BE0"/>
</g>
<path d="M24.9709 11.0278V11.6519C24.9709 12.3935 24.8782 13.0583 24.6928 13.6462C24.5073 14.2341 24.2405 14.7338 23.8923 15.1453C23.5441 15.5569 23.1258 15.8712 22.6374 16.0882C22.1535 16.3053 21.6108 16.4139 21.0093 16.4139C20.426 16.4139 19.8901 16.3053 19.4017 16.0882C18.9178 15.8712 18.4972 15.5569 18.1399 15.1453C17.7872 14.7338 17.5136 14.2341 17.3191 13.6462C17.1247 13.0583 17.0274 12.3935 17.0274 11.6519V11.0278C17.0274 10.2861 17.1224 9.62361 17.3124 9.04023C17.5068 8.45234 17.7804 7.95262 18.1331 7.54109C18.4859 7.12504 18.9042 6.80848 19.3881 6.59141C19.8765 6.37434 20.4124 6.2658 20.9958 6.2658C21.5972 6.2658 22.1399 6.37434 22.6238 6.59141C23.1122 6.80848 23.5305 7.12504 23.8787 7.54109C24.2315 7.95262 24.5006 8.45234 24.686 9.04023C24.8759 9.62361 24.9709 10.2861 24.9709 11.0278ZM23.6752 11.6519V11.0142C23.6752 10.4263 23.6142 9.90626 23.4921 9.45403C23.3745 9.0018 23.2004 8.62192 22.9698 8.31441C22.7391 8.00689 22.4565 7.77399 22.1218 7.61571C21.7917 7.45743 21.4163 7.37829 20.9958 7.37829C20.5888 7.37829 20.2202 7.45743 19.8901 7.61571C19.5645 7.77399 19.2841 8.00689 19.0489 8.31441C18.8183 8.62192 18.6396 9.0018 18.513 9.45403C18.3864 9.90626 18.3231 10.4263 18.3231 11.0142V11.6519C18.3231 12.2443 18.3864 12.7689 18.513 13.2256C18.6396 13.6779 18.8205 14.06 19.0557 14.372C19.2954 14.6795 19.578 14.9124 19.9036 15.0707C20.2338 15.229 20.6023 15.3081 21.0093 15.3081C21.4344 15.3081 21.812 15.229 22.1422 15.0707C22.4723 14.9124 22.7504 14.6795 22.9765 14.372C23.2072 14.06 23.3813 13.6779 23.4989 13.2256C23.6164 12.7689 23.6752 12.2443 23.6752 11.6519ZM34.5288 6.40147V16.2782H33.2128L28.2405 8.66036V16.2782H26.9313V6.40147H28.2405L33.2331 14.0396V6.40147H34.5288ZM42.8385 15.2132V16.2782H37.9001V15.2132H42.8385ZM38.1579 6.40147V16.2782H36.8487V6.40147H38.1579ZM45.7418 6.40147V16.2782H44.4326V6.40147H45.7418ZM55.7203 6.40147V16.2782H54.4043L49.432 8.66036V16.2782H48.1228V6.40147H49.432L54.4246 14.0396V6.40147H55.7203ZM64.3149 15.2132V16.2782H59.0849V15.2132H64.3149ZM59.3494 6.40147V16.2782H58.0402V6.40147H59.3494ZM63.623 10.6479V11.7129H59.0849V10.6479H63.623ZM64.2471 6.40147V7.47326H59.0849V6.40147H64.2471Z" fill="white"/>
<defs>
<filter id="filter0_d_496_190" x="0.591201" y="0.67334" width="79.8819" height="29.5216" filterUnits="userSpaceOnUse" color-interpolation-filters="sRGB">
<feFlood flood-opacity="0" result="BackgroundImageFix"/>
<feColorMatrix in="SourceAlpha" type="matrix" values="0 0 0 0 0 0 0 0 0 0 0 0 0 0 0 0 0 0 127 0" result="hardAlpha"/>
<feOffset dy="3.47313"/>
<feGaussianBlur stdDeviation="1.73656"/>
<feComposite in2="hardAlpha" operator="out"/>
<feColorMatrix type="matrix" values="0 0 0 0 0 0 0 0 0 0 0 0 0 0 0 0 0 0 0.1 0"/>
<feBlend mode="normal" in2="BackgroundImageFix" result="effect1_dropShadow_496_190"/>
<feBlend mode="normal" in="SourceGraphic" in2="effect1_dropShadow_496_190" result="shape"/>
</filter>
</defs>
</svg>
